<svg height="618" width="618" xmlns="http://www.w3.org/2000/svg"><path d="m0 0c24.92475497 7.95970618 50.27127555 14.03439285 76.06005859 18.43823242 3.48082269.6252438 6.94063359 1.33054518 10.40478516 2.04223633 7.78974194 1.57072414 15.60794242 2.83587484 23.47265625 3.95703125.73555115.10510895 1.47110229.2102179 2.22894287.31851196 53.33425348 7.53705364 107.1212832 9.72541297 160.89605713 7.30648804.9666861-.04338501 1.93337219-.08677002 2.92935181-.13146973 2.75041374-.12641525 5.50040265-.259432 8.25033569-.39587402.81710953-.03860641 1.63421906-.07721283 2.47608948-.11698914 4.22940079-.22064431 8.29410007-.66486571 12.46922302-1.41816711 2.39468734-.12783029 4.79087957-.22836588 7.1875-.3125 25.2088468-1.16613842 50.79999143-4.68582446 75.48828125-9.828125 3.32098257-.67804389 6.65154431-1.27059774 9.9921875-1.84375 13.11127777-2.27333452 26.04763746-4.99032991 38.95703125-8.203125.75141266-.18690399 1.50282532-.37380798 2.27700806-.56637573 8.57818538-2.15146156 17.07672279-4.48746021 25.51986694-7.12112427 1.13790482-.35376457 1.13790482-.35376457 2.29879761-.7146759 3.6264098-1.13296859 7.24238683-2.29025331 10.84817505-3.4872284 1.29727729-.41603969 2.59463612-.83182526 3.89208984-1.24731445 1.12196777-.37213623 2.24393555-.74427246 3.39990234-1.12768555 3.81918207-.66682717 5.67956451-.27373178 9.13916016 1.4519043 2.59671527 2.22336641 3.85268075 4.02614031 4.36845887 7.43571174.15318417 3.20299999.16905606 6.38360881.14620483 9.59027398.00694552 1.23327154.01389105 2.46654308.02104705 3.73718649.01513621 3.42069732.0123171 6.84052605.00184697 10.26118451-.00698727 3.68994306.00900231 7.37979685.02199733 11.06971371.02165343 7.22776639.02150968 14.45537541.01337446 21.68316358-.00629743 5.87417785-.00516534 11.74830978.00127207 17.62248714.00090166.8357493.00180331 1.67149861.00273229 2.53257365.00185119 1.69777196.00371375 3.3955439.00558756 5.09331583.01658322 15.92464638.00785492 31.8492042-.00898558 47.77384526-.0146966 14.57125695-.00007009 29.1423077.02877017 43.71353809.02938803 14.95931395.04036797 29.91853271.0308178 44.87787427-.00102256 1.69186493-.00201717 3.38372988-.00298352 5.07559484-.00047639.83244209-.00095278 1.66488418-.0014436 2.52255179-.00216497 5.8667908.00764434 11.73349156.02221463 17.60026239.01751005 7.1502769.01742528 14.3002909-.00535165 21.4505574-.01115465 3.64844419-.01427776 7.29642497.0043007 10.94484932.01987727 3.95435876.00104738 7.90799072-.02167129 11.86234665.01775359 1.73126811.01775359 1.73126811.03586584 3.49751133-.10136159 8.6563303-.10136159 8.6563303-2.96674448 12.38254791-2.9831155 2.51374602-4.68774476 2.93509336-8.56498623 2.62691403-3.6263414-.60203745-7.0716379-1.54746906-10.56982422-2.66650391-.69931641-.21333984-1.39863281-.42667969-2.11914062-.64648438-3.58124109-1.10166736-7.13384988-2.27489113-10.67944336-3.48583984-4.39312025-1.46525441-8.81404209-2.69201629-13.30297852-3.82470703-.79120743-.2016275-1.58241486-.403255-2.39759827-.61099243-2.56142024-.64953862-5.12453205-1.2919272-7.68833923-1.93197632-.88160797-.22060089-1.76321594-.44120178-2.67153931-.66848755-22.53289197-5.61547665-45.17636187-10.16888167-68.21517944-13.17672729-2.91068029-.40038989-5.81189654-.85018431-8.71484375-1.30322266-48.42039377-7.48270591-100.25008411-12.02426442-149.1784668-8.28198242-7.49975606.50677469-15.01757234.64380015-22.53051758.84838867-1.22912109.03738281-2.45824218.07476562-3.72460937.11328125-1.09965088.03029297-2.19930176.06058594-3.33227539.09179688-2.76960979.1744636-5.29798655.62093724-8.00756836 1.18945312-1.43128003.11557525-2.86565755.19771879-4.30078125.24609375-.80332764.0314209-1.60665527.0628418-2.43432617.09521484-.85053955.03174317-1.7010791.06348633-2.57739258.09619141-8.19794072.36211944-16.19831251 1.13368976-24.33007812 2.25341797-2.76716337.36280331-5.53778136.68333905-8.31054688 1.00048828-10.51594642 1.20466017-20.95949908 2.48479153-31.36328125 4.44921875-3.6031279.67782402-7.21463946 1.27101327-10.8359375 1.84375-33.36949757 5.35251873-66.76825842 13.32249239-98.84765625 24.015625-5.76491228.65087719-5.76491228.65087719-8 0-3.07557209-2.69954467-4.72116082-4.47185653-5.46346772-8.53997719-.18026346-3.22638059-.19774662-6.41959198-.16472137-9.65095604-.00709438-1.23891508-.01418877-2.47783017-.02149814-3.75428813-.01454735-3.43196209-.0066944-6.86254239.01072293-10.29440302.0133751-3.70353939-.00206348-7.40697449-.01382195-11.11050379-.01837946-7.25207306-.0098626-14.50387668.00808822-21.75594134.0140244-5.89323582.01791915-11.7863985.01455773-17.67964941-.00047745-.8386779-.00095489-1.6773558-.0014468-2.54144818-.00102632-1.70373316-.00208168-3.4074663-.00316576-5.11119942-.00856754-15.06511339.00811024-30.13009667.03782903-45.1951784.02884269-14.62114934.0359186-29.24211127.02050781-43.86328125-.01675671-15.91995154-.02080219-31.8398141-.00328964-47.75976795.00184441-1.69716757.00367913-3.39433514.00550408-5.09150273.00091209-.83505192.00182418-1.67010385.0027639-2.53046037.00560831-5.8872884.00229554-11.77453339-.00430886-17.66181944-.00772719-7.17295472-.00100273-14.34572488.02417504-21.51864238.01250888-3.66040994.01862497-7.32053235.00745834-10.98095327-.01186915-3.96553742.00719029-7.93057728.02944946-11.89607811-.00824076-1.1603004-.01648153-2.32060081-.02497202-3.51606184.08095759-7.78032506.08095759-7.78032506 2.4468022-11.73938459 7.0114243-6.05885887 18.18448529-.35762888 25.90533352 2.19149685zm-10.8125 16c-.98216757 25.97819951-1.15023166 51.93063598-1.1343255 77.92511368.00258598 5.57598793.00016913 11.15197447-.00138617 16.72796249-.00180391 9.35229799.00053734 18.704588.00534058 28.05688477.00543913 10.71208555.0036752 21.42415205-.00182641 32.13623714-.00458242 9.3056002-.00515693 18.61119477-.00256133 27.91679573.00153492 5.51035085.00183532 11.02069283-.00153649 16.53104306-.01323626 24.92110035.19469702 49.8008152 1.13629532 74.70596313 1.92984252-.48006002 3.85952488-.96076387 5.78913879-1.44174194 1.07460889-.26762335 2.14921778-.5352467 3.25639058-.81097985 3.0286753-.7660469 6.03168741-1.59216235 9.02868938-2.47384071 14.4798617-4.17393776 29.02256599-7.78203638 43.73828125-11.0234375 1.24177505-.27641327 1.24177505-.27641327 2.50863647-.55841064 65.61708213-14.54793946 133.62911253-18.949874 200.67886353-17.69158936 1.40445532.02272945 2.80891456.04521809 4.21337891.06738281 7.60874323.13757544 15.19175615.45663335 22.78662109.93261719 1.05175415.06574219 1.05175415.06574219 2.12475586.1328125 18.99906092 1.20049568 37.95724548 2.73317032 56.87524414 4.8671875.70036377.0776358 1.40072754.15527161 2.12231445.23526001 8.76275298.98210878 17.39470169 2.35409854 26.0456543 4.03720093 3.51046066.66648654 7.01949229 1.25433466 10.55078125 1.79785156 31.14799824 4.80997105 61.73778668 11.9331165 91.84326172 21.24633789 2.33696081.77331328 2.33696081.77331328 4.43798828.68334961.98216757-25.97819951 1.15023166-51.93063598 1.1343255-77.92511368-.00258598-5.57598793-.00016913-11.15197447.00138617-16.72796249.00180391-9.35229799-.00053734-18.704588-.00534058-28.05688477-.00543913-10.71208555-.0036752-21.42415205.00182641-32.13623714.00458242-9.3056002.00515693-18.61119477.00256133-27.91679573-.00153492-5.51035085-.00183532-11.02069283.00153649-16.53104306.01323626-24.92110035-.19469702-49.8008152-1.13629532-74.70596313-1.57095049.30316973-3.14129856.60946185-4.71139526.91702271-.87455275.17022233-1.7491055.34044467-2.65015984.51582527-4.06664818.87415422-7.99570046 2.11937137-11.9587574 3.37183952-10.42294747 3.20463594-20.94099785 5.83237678-31.5546875 8.3203125-1.37348602.32449631-1.37348602.32449631-2.77471924.6555481-13.38211521 3.15743526-26.7537014 6.13115313-40.35028076 8.2194519-.82967285.12922852-1.6593457.25845703-2.51416016.39160156-4.21627757.65260505-8.43510778 1.2833032-12.65771484 1.89355469-3.10078498.45101202-6.19231604.93494321-9.28125 1.4609375-18.71570414 3.16888334-37.63813113 4.82187395-56.546875 6.37890625-.90379395.07549072-1.80758789.15098145-2.73876953.22875977-3.08582243.24200923-6.17214273.44994586-9.26123047.64624023-.66872131.04343536-1.33744263.08687073-2.02642822.13162231-16.10141453 1.009041-32.20878799 1.0559714-48.3348999 1.05368042-2.99127306-.0000808-5.98239145.00680647-8.97363282.02050782-19.47913352.08778856-38.76468517-.47609187-58.19134521-1.95109558-4.75879294-.34894722-9.52054782-.63940475-14.28346253-.925766-24.42120875-1.53123021-48.50631761-5.3637141-72.56669616-9.69979858-2.53582694-.44029282-5.06674145-.8568486-7.61035157-1.24462891-12.03008377-1.85787048-23.80901962-4.53679589-35.63476562-7.40820312-3.23994822-.78555251-6.48275093-1.5583496-9.72607422-2.32983398-10.95692391-2.62917469-21.80683067-5.43980901-32.55636597-8.82783509-4.46204265-1.39985605-4.46204265-1.39985605-9.09597778-1.81864929z" fill="#0e0e0f" transform="translate(76.8125 156)"/><path d="m0 0c2.4765625 1.06640625 2.4765625 1.06640625 4.625 2.5625 6.59812659 4.00970318 13.77503776 5.76887192 21.22705078 7.63696289 6.61898454 1.80734281 10.60942334 3.79771951 14.14794922 9.80053711 1.556452 3.09536166 2.80404126 6.25047275 4 9.5.33684814.87640137.67369629 1.75280273 1.02075195 2.65576172.68168688 1.77377544 1.35796286 3.54964071 2.02856446 5.32763672 5.83496341 18.46245717 5.83496341 18.46245717 17.95068359 32.51660156 3.41652877 1.40165283 4.76248851 1.07618293 8.3125-.0625 5.31086681-2.52237247 9.89323615-6.27780594 14.1875-10.25 3.44753704-2.3270875 6.35681674-2.97488843 10.5-2.6875 7.3110857 2.75890026 12.91340083 9.20514019 18 15v2c.56799316.25587891 1.13598633.51175781 1.72119141.77539062 2.53625344 1.36295771 4.53195109 2.97057629 6.73974609 4.81835938 5.80088415 4.70697886 11.90713401 8.83300015 18.1640625 12.90625.56981598.37129028 1.13963196.74258057 1.72671509 1.12512207 29.29588992 19.0302642 59.68782944 24.08821851 93.63510132 29.40783691.78226959.12364426 1.56453918.24728852 2.37051391.37467957 1.47918434.23351194 2.95880461.46428389 4.43890381.69192505 4.97943621.78827157 4.97943621.78827157 7.20376587 1.9004364-.33.99-.66 1.98-1 3-30.25751589.54065936-62.63591186.73740835-90-14-.91523438-.47308594-1.83046875-.94617188-2.7734375-1.43359375-5.23587125-2.76796059-10.33879658-5.76599452-15.4140625-8.81640625-1.10730469-.66515625-2.21460938-1.3303125-3.35546875-2.015625-.81082031-.57234375-1.62164062-1.1446875-2.45703125-1.734375 0-.66 0-1.32 0-2-.66773438-.21527344-1.33546875-.43054688-2.0234375-.65234375-3.96332969-1.79442092-7.16145704-4.27049363-10.6015625-6.91015625-.70568115-.5350415-1.4113623-1.07008301-2.13842773-1.62133789-5.06196096-3.85878816-9.99399682-7.85292523-14.90454102-11.90209961-5.43031231-4.80677034-5.43031231-4.80677034-12.01953125-7.3515625-2.4140207.45670662-4.20440926 1.18826104-6.3125 2.4375v2c1.051875.103125 2.10375.20625 3.1875.3125 5.38368962.97082928 7.7818522 2.3504434 11.125 6.6875 1.6875 3 1.6875 3 1.6875 6-2.58592942-.49729412-4.41186554-1.22465393-6.75-2.5-3.89956059-1.7997972-6.990285-2.13278319-11.25-2.5 2.54615905 2.62104608 5.02227366 5.01791577 7.875 7.3125 2.44997927 1.99373313 4.45785625 4.15369862 6.5 6.5625 4.68675721 5.45607373 10.02050281 9.86594717 15.65625 14.3125.7226001.57468018 1.4452002 1.14936035 2.18969727 1.74145508 1.46207505 1.15996548 2.93121716 2.31108603 4.40771484 3.45263672.67812744.53794189 1.35625488 1.07588379 2.05493164 1.63012695.61415771.47912842 1.22831543.95825684 1.86108398 1.4519043 1.70338083 1.79825122 2.06525522 3.12017348 2.45532227 5.53637695-5.67688499-1.94028043-10.38104594-4.22954035-15.3125-7.625-.64807617-.43948975-1.29615234-.87897949-1.96386719-1.33178711-5.85123998-4.02290808-11.31675589-8.44333252-16.72363281-13.04321289-11.83986543-10.49071441-11.83986543-10.49071441-26-17 .76697796 1.41875765 1.53876778 2.83491452 2.3125 4.25.64388672 1.18335938.64388672 1.18335938 1.30078125 2.390625 1.34016715 2.39110474 1.34016715 2.39110474 3.0546875 4.53125 1.33203125 1.828125 1.33203125 1.828125 1.33203125 3.828125h2c1.2530313 1.55351843 2.42642947 3.17150923 3.5625 4.8125 3.66502853 5.19828817 7.60283793 10.05532516 11.75 14.875 1.6875 2.3125 1.6875 2.3125 1.6875 5.3125-5.35864944-.3572433-8.34472439-3.41142273-12.1875-6.8125-.62841797-.53431641-1.25683594-1.06863281-1.90429688-1.61914062-3.09320067-2.68959589-5.21879884-4.77320233-6.90820312-8.56835938-.66 0-1.32 0-2 0-3.94784667-4.44048395-7.46702555-9.22603935-11-14-.74894531-1.010625-1.49789062-2.02125-2.26953125-3.0625-11.00029364-16.00042711-18.74938913-35.1324318-25.19555664-53.36547852-2.63421854-7.35420633-5.49990337-12.63241659-12.53491211-16.57202148-3.2249208-1.24324147-3.2249208-1.24324147-6-2v3h2c1.44526736 1.73548169 2.8087222 3.53975963 4.125 5.375 1.08667969 1.49660156 1.08667969 1.49660156 2.1953125 3.0234375 1.6796875 2.6015625 1.6796875 2.6015625 1.6796875 4.6015625-3.89837555-.58792207-6.07921429-2.43751536-9.0625-4.9375-1.44052734-1.2065625-1.44052734-1.2065625-2.91015625-2.4375-3.98854187-3.42799704-7.86141828-6.97961282-11.71484375-10.55859375-3.43394941-3.14746921-3.43394941-3.14746921-7.8125-4.25390625-2.6291753.09478613-2.6291753.09478613-5.5 1.1875v2l2.625-.25c7.93239309.58758467 13.80211638 8.1364676 19.375 13.25 4.84971167 4.44481923 9.70281493 8.27960718 15.3125 11.73828125.556875.41636719 1.11375.83273437 1.6875 1.26171875v2h2c5.29958284 6.66118851 12 17.23130348 12 26-2.1875.01953125-2.1875.01953125-5-1-2.02319282-2.56867673-3.48131289-5.42462154-5-8.3125-3.8663231-7.26527793-3.8663231-7.26527793-10-12.6875 2.49276254 6.4943024 5.86647947 12.03198583 9.79296875 17.7578125 2.3090814 3.39210188 4.512056 6.83848924 6.70703125 10.3046875 2.69684256 4.24077485 5.48826966 8.34740823 8.5 12.375 3.24253831 4.38657905 6.17042555 8.90363244 9 13.5625.39832031.64767334.79664063 1.29534668 1.20703125 1.96264648 2.79296875 4.67365818 2.79296875 4.67365818 2.79296875 8.03735352-3.29406201-1.39446254-4.95404753-2.88121044-7.0625-5.75-.6084375-.81082031-1.216875-1.62164062-1.84375-2.45703125-.6909375-.92167969-1.381875-1.84335937-2.09375-2.79296875-1.68271103-2.14982724-3.36985742-4.29553997-5.0625-6.4375-3.1892062-4.04695401-6.36202783-8.10578602-9.51171875-12.18359375-.61029053-.78898682-1.22058105-1.57797363-1.84936523-2.39086914-1.1826279-1.53009697-2.36326134-3.06173843-3.54150391-4.59521484-8.23895452-10.86858649-8.23895452-10.86858649-19.03491211-18.95532227-.5775-.35384766-1.155-.70769531-1.75-1.07226562-3.0080711-1.70882611-5.28776173-2.36700644-8.74609375-2.52929688-4.9074124 1.63033322-7.25167985 4.49733274-10.56640625 8.3515625-1.30243187 1.45384678-2.60717652 2.90562452-3.9140625 4.35546875-.66032227.73911621-1.32064453 1.47823242-2.00097656 2.23974609-3.2087137 3.51780998-6.57507332 6.86998312-9.95996094 10.21728516-.9137439.90721802-.9137439.90721802-1.84594727 1.83276367-1.40321857 1.39140114-2.80950835 2.77970412-4.21655273 4.16723633-.99-.33-1.98-.66-3-1 3.97784143-6.43782231 8.55627783-12.30192626 13.30664062-18.17431641 5.00837684-6.19186314 9.86588736-12.49229662 14.69335938-18.82568359-2.97.66-5.94 1.32-9 2v2c-.66 0-1.32 0-2 0v2c-.66 0-1.32 0-2 0-.22365234.54817383-.44730469 1.09634766-.67773438 1.66113281-1.71939591 3.04132438-4.01850561 5.3212034-6.47851562 7.76074219-.50293579.50484924-1.00587158 1.00969849-1.52404785 1.52984619-1.06000201 1.06135878-2.12251703 2.120213-3.18737793 3.17669678-1.63372468 1.62297327-3.25645716 3.25639271-4.87841797 4.89111328-1.03191101 1.03059021-2.06444184 2.06056027-3.09765625 3.08984375-.48650024.49054871-.97300049.98109741-1.47424316 1.48651123-3.45206335 3.40411377-3.45206335 3.40411377-5.68200684 3.40411377.53031138-4.5076467 2.25221116-7.41954788 5-11h2c.66-1.65 1.32-3.3 2-5h2c.21398437-.52078125.42796875-1.0415625.6484375-1.578125 1.91125028-3.42478374 4.4090006-6.22054097 6.9765625-9.171875.80425415-.92945435.80425415-.92945435 1.62475586-1.87768555 12.007373-13.77078159 12.007373-13.77078159 19.25024414-14.93481445 5.38852713.01992062 8.82918537 3.29581804 12.88671875 6.51953125 2.44735905 1.91325678 4.91914342 3.50415489 7.61328125 5.04296875-.474375-.928125-.94875-1.85625-1.4375-2.8125-1.5625-3.1875-1.5625-3.1875-2.5625-6.1875-.66 0-1.32 0-2 0 0-.66 0-1.32 0-2-.78375-.309375-1.5675-.61875-2.375-.9375-2.625-1.0625-2.625-1.0625-4.625-2.0625-7.75708514-1.044223-13.49170929.78453831-20 5-1.36794747 1.29779632-2.71889593 2.6164076-4 4-.99 0-1.98 0-3 0 1.48868707-4.60139641 3.74629855-7.50227094 7-11h2c0-.66 0-1.32 0-2l10-5c-1.835625-.12375-3.67125-.2475-5.5625-.375-1.03253906-.06960938-2.06507813-.13921875-3.12890625-.2109375-5.35118226.947671-8.50491149 4.17196779-11.7019043 8.45068359-1.28737482 1.97137799-2.48865476 3.97325288-3.66918945 6.01025391-.85297174 1.41557012-1.70842085 2.82965056-2.56640625 4.2421875-.40492676.66999023-.80985352 1.33998047-1.22705078 2.03027344-2.15977289 3.49730189-4.51382228 6.69627423-7.14404297 9.85253906-.66 0-1.32 0-2 0-.22816406.55300781-.45632812 1.10601562-.69140625 1.67578125-5.01284067 8.90340358-15.41813327 16.148572-23.30859375 22.32421875-.88816406.69738281-1.77632813 1.39476562-2.69140625 2.11328125-2.09661067 1.63725935-4.19875159 3.26656835-6.30859375 4.88671875.33.99.66 1.98 1 3l2 1v2c.73089844.27328125 1.46179688.5465625 2.21484375.828125 6.83341729 2.87521064 12.20398694 6.63234843 15.78515625 13.171875.78503906-.2165625 1.57007813-.433125 2.37890625-.65625 8.94562508-2.37086505 16.1636398-3.76355894 24.62109375.65625 5.29030405 3.48463141 8.15931321 6.93656118 10 13 .04125336 1.99957449.0477392 4.00056984 0 6 .86882812-.03480469 1.73765625-.06960938 2.6328125-.10546875 11.85525691-.27847919 11.85525691-.27847919 16.3671875 3.10546875 1.7871376 1.92769899 3.37648389 3.9255072 5 6 2.37642278 1.18821139 4.08275372 1.2315866 6.734375 1.39453125 26.61638271 1.83930723 26.61638271 1.83930723 35.265625 7.60546875.1875 3.125.1875 3.125 0 6-6.56864085 2.29138634-13.09588805 2.62732574-20 3-.7518457.04511719-1.50369141.09023438-2.27832031.13671875-73.96669847 4.36660206-73.96669847 4.36660206-89.72167969-6.13671875 0-.66 0-1.32 0-2 8.5896172-.15960063 17.06205586.36786867 25.625 1 23.74005457 1.65817423 47.71139894 1.81596853 71.375-1-3.85375577-.33819866-7.70806128-.66968331-11.5625-1-1.08603516-.09539062-2.17207031-.19078125-3.29101562-.2890625-6.60920419-.57805415-6.60920419-.57805415-13.23632813-.6484375-2.91015625-.0625-2.91015625-.0625-5.91015625-2.0625-.28875-.969375-.5775-1.93875-.875-2.9375-.89447426-3.11978433-.89447426-3.11978433-3.125-5-7.30198131-2.58611838-15.05345072.26962238-22 2.9375-1-3-1-3 .5-6.25 1.78540319-3.89991296 1.6634649-6.56152635.5-10.75-2.49724747-4.01343343-4.55704903-5.56781666-9-7-6.44733908-.59730117-13.00648848-.60587457-19 2-1.20003343 1.81601365-1.20003343 1.81601365-2 4-1.62553283 1.70680947-3.29115995 3.37660195-5 5-.66.66-1.32 1.32-2 2-2.375.5-2.375.5-5 0-.61875-.94875-1.2375-1.8975-1.875-2.875-2.65224689-3.90036308-4.60068107-4.25493867-9.125-5.125 0-.99 0-1.98 0-3 6.10953104-1.92932559 10.48193871.45907454 16 3 .64510359-6.4412993.64510359-6.4412993-2.3125-12-5.14506532-3.82888582-10.50602093-3.4870793-16.6875-3-4.88578641 1.68781712-6.87297772 4.01035089-10 8-.99 0-1.98 0-3 0-.14695312-.66386719-.29390625-1.32773437-.4453125-2.01171875-1.6027593-6.30971335-3.04624766-9.43074719-8.5546875-12.98828125-5.80230769-1.93410256-11.84037092-1.88303335-17.4375.6875-3.33476991 1.91229261-5.02196365 3.71791517-6.5625 7.3125-.20625 1.051875-.4125 2.10375-.625 3.1875-1.375 2.8125-1.375 2.8125-3.32421875 3.6015625-2.34391893.51914899-4.67461182.8750392-7.05078125 1.2109375-.86625.28875-1.7325.5775-2.625.875-2.375.125-2.375.125-5.4375-1.8125-4.97025396-3.12539987-10.26774934-2.69498214-15.9375-2.0625-3.84456365.92219679-7.06046663 2.29534997-10.25 4.6875-1.75 1.3125-1.75 1.3125-5.75 1.3125 1.85555377-5.00999518 5.73437241-7.81141099 10.30078125-10.20703125 9.19065772-4.04503287 15.74621054-3.22635184 25.16796875-.39453125 3.09525674.73560114 5.49112915.50538221 8.53125-.3984375.226875-.886875.45375-1.77375.6875-2.6875 2.34753996-5.92474372 6.95192849-9.11896804 12.3125-12.3125 7.42455095-2.35526721 15.08876727-1.69985413 21.984375 1.78515625 3.02172513 1.82123355 5.48383996 3.74797627 8.015625 6.21484375v2l9-2c-3.90108915-4.12745796-8.11050687-7.46317725-12.6875-10.8125-5.48816857-4.06103248-10.88735842-8.19343384-16.18359375-12.50390625-2.03410436-1.60862198-4.11593873-3.09219455-6.25390625-4.55859375-.94875-.70125-1.8975-1.4025-2.875-2.125 0-.66 0-1.32 0-2-.5775-.268125-1.155-.53625-1.75-.8125-2.25-1.1875-2.25-1.1875-4.125-2.75-2.66285234-1.80134129-4.96335725-2.07822241-8.125-2.4375.495.78375.99 1.5675 1.5 2.375 1.5 2.625 1.5 2.625 1.5 4.625h2c4.28873219 4.16197164 7.84120621 8.94592993 11 14-1.671875.74609375-1.671875.74609375-4 1-2.515625-1.58984375-2.515625-1.58984375-5.25-3.9375-1.44052734-1.23363281-1.44052734-1.23363281-2.91015625-2.4921875-3.75142764-3.39537743-7.35336886-6.90401942-10.83984375-10.5703125-5.81178383 1.49841819-9.35302537 4.62373335-13.58789062 8.63085938-1.50976563 1.34960937-1.50976563 1.34960937-4.41210938 3.36914062-2.87109375-.19921875-2.87109375-.19921875-5-1 7.35927829-8.90860004 15.00159414-17.05891826 25-23-2.24569417-3.25550693-2.24569417-3.25550693-5-6-3.83943687 0-6.69828604 1.09516502-10 3v2c-1.46875 1.48046875-1.46875 1.48046875-3.5 3.1875-3.21698134 2.7097861-3.21698134 2.7097861-6.3203125 5.546875-4.40420008 4.15634466-14.74011738 13.265625-21.1796875 13.265625-.47576234-3.7730597-.70612452-7.24805478 0-11 2.31084305-2.49022356 4.82220751-3.8450192 8-5h2c0-.66 0-1.32 0-2 1.50390625-1.48046875 1.50390625-1.48046875 3.5625-3.1875 4.95840081-4.21376465 9.50713097-8.7373533 13.9375-13.5 3.92090398-3.62683618 7.29415567-6.14602118 12.8125-6.5625 9.08993566 3.08133412 15.17063233 10.75627495 21.36328125 17.74609375 2.92731244 3.15362568 5.56992661 5.40150265 9.32421875 7.50390625 7.69772481-.59467402 13.80713793-8.53856216 18.8125-13.625.77537109-.77601563 1.55074219-1.55203125 2.34960938-2.3515625 3.87510691-3.67083295 3.87510691-3.67083295 6.83789062-8.0234375h2c0-.66 0-1.32 0-2 3.51824511-2.34549674 4.85775694-2.57991403 9-2 1.9251079 1.61292824 3.36130852 3.12537127 5 5 1.55253461 1.59310608 3.11580469 3.17579399 4.6875 4.75.76699219.77859375 1.53398437 1.5571875 2.32421875 2.359375 1.84935115 1.94293115 1.84935115 1.94293115 3.98828125 2.890625v2c3.58422698 1.86379803 7.28474304 3.41765602 11 5 6.22317892-8.23578146 11.68679053-16.54474099 16.33544922-25.78076172 2.77983117-5.31190767 5.91789303-8.60739204 10.66455078-12.21923828.90093384-.73911621.90093384-.73911621 1.82006836-1.49316406 1.82579029-1.49690912 3.68422144-2.94162391 5.55493164-4.38183594.6084375-.49757812 1.216875-.99515625 1.84375-1.5078125 4.82373933-3.67330777 8.76499572-4.62159482 14.78125-3.6171875zm-83.7265625 37.4609375c-.62648438.63164062-1.25296875 1.26328125-1.8984375 1.9140625-.63164062.62648438-1.26328125 1.25296875-1.9140625 1.8984375-1.67625158 1.60407203-1.67625158 1.60407203-1.4609375 3.7265625-.58265625.268125-1.1653125.53625-1.765625.8125-2.26224101 1.20230991-4.04013818 2.52575913-5.984375 4.1875-.61359375.515625-1.2271875 1.03125-1.859375 1.5625-1.62238876 1.34373252-1.62238876 1.34373252-1.390625 3.4375-.721875.226875-1.44375.45375-2.1875.6875-3.34459313 1.56081013-5.32853959 3.6156287-7.8125 6.3125 6.38477129 7.99730739 14.31025703 16.22086948 24 20 2.05941582-.37189258 2.05941582-.37189258 3.75-1.75.67289063-.47953125 1.34578125-.9590625 2.0390625-1.453125 3.40541229-2.76764957 6.66400488-5.67440981 9.8828125-8.65625 1.85775564-1.70813774 3.7324576-3.31807223 5.703125-4.890625 2.61781665-2.24384284 4.67861978-4.40529044 6.625-7.25 0-.99 0-1.98 0-3-2.0875299-1.77013401-2.0875299-1.77013401-4.8125-3.5-5.68653181-3.94816198-10.23732672-8.37470942-14.97265625-13.375-2.59077465-2.4856815-3.17554905-3.00440321-5.94140625-.6640625z" fill="#272626" transform="translate(257 233)"/><path d="m0 0c.89203125-.0515625 1.7840625-.103125 2.703125-.15625 8.01830674 1.72701991 13.70268537 9.24779932 19.109375 14.96875 8.45190706 8.71992407 17.14383295 14.29066647 27.9375 19.6875v10c-13.33697194-4.70716657-25.53255338-13.12167546-35.265625-23.39453125-.56726807-.59401611-1.13453613-1.18803223-1.71899414-1.80004883-1.11310384-1.18012944-2.20960717-2.37619981-3.28662109-3.58935547-3.0117315-3.20680041-4.04963173-4.15067198-8.62329102-4.59106445-1.02480469.12375-2.04960937.2475-3.10546875.375 0 3.62806463 1.07036963 4.42861962 3.52949524 6.92068481.76850532.75469071.76850532.75469071 1.55253601 1.52462769.52881271.52931122 1.05762543 1.05862244 1.60246277 1.60397339 1.12721695 1.12487213 2.25813886 2.2460417 3.39241028 3.36380005 1.69925959 1.67607374 3.38523417 3.36461948 5.06958008 5.05566406 6.63780213 6.61910823 13.45575047 12.75770198 20.85351562 18.53125-.33.66-.66 1.32-1 2-11.03688953-1.28663193-22.53247618-14.40151444-29.92578125-21.9765625-.73754517-.75337646-.73754517-.75337646-1.48999023-1.52197266-1.38887222-1.42907212-2.7642777-2.87119575-4.13891602-4.31396484-2.25415297-2.17595098-2.25415297-2.17595098-4.453125-3.3125-3.40893329.21389385-4.80147788 2.66168334-6.9921875 5.125-24.08961294 25.00958402-24.08961294 25.00958402-39.6640625 26.3046875-3.06319741-.27977681-4.86964493-.65623365-7.5234375-2.1171875-.6703125-.3609375-1.340625-.721875-2.03125-1.09375-1.78125-1.09375-1.78125-1.09375-3.96875-2.90625-1.77476015-1.44061765-1.77476015-1.44061765-4.09765625-.9140625-2.87343714.7690062-5.29854453 1.85040338-7.96484375 3.1640625-6.83538586 3.18310028-13.15851124 4.95180712-20.75 4.5625 0-1.32 0-2.64 0-4 .60996826-.28721924 1.21993652-.57443848 1.84838867-.87036133 2.78098191-1.31135517 5.56005559-2.62670676 8.33911133-3.94213867.95970703-.45181641 1.91941406-.90363281 2.90820312-1.36914062.93134766-.44150391 1.86269532-.88300782 2.82226563-1.33789063.85360107-.40323486 1.70720215-.80646973 2.58666992-1.22192383 2.55742553-1.24457292 2.55742553-1.24457292 5.11376953-2.87841797 3.47408443-2.01322391 5.39807073-1.96785957 9.3815918-1.38012695 1.69905634.94392019 3.36431751 1.95008544 5 3 4.26229234 2.7170504 6.84277376 3.9550419 12 3 14.6424619-4.80750359 27.13042371-20.03059731 36-32l1-2h2c.37125-.928125.37125-.928125.75-1.875 2.3878231-4.05929927 6.03950166-4.47206863 10.5-4.625z" fill="#242424" transform="translate(498.25 265.5)"/><path d="m0 0c1.32668701-.01367111 1.32668701-.01367111 2.68017578-.02761841 1.05272095-.01491737 1.05272095-.01491737 2.12670899-.03013611 2.06089597.11429878 3.89489767.54289825 5.87719726 1.10411072v3c-11.6319889 2.80256107-23.08831889 4.85406612-35 6v2c1.24763626.0154612 1.24763626.0154612 2.5204773.03123474 7.96809826.09934938 15.93614615.20201524 23.90415763.30810452 4.09313581.05438875 8.1862788.10764102 12.27946663.15797519 51.69982643.63828194 51.69982643.63828194 71.29589844 2.50268555-.33.99-.66 1.98-1 3-25.57604979 1.71779439-51.05609234 2.32217223-76.68701172 2.26074219-4.92980868-.01165267-9.85940564-.00463003-14.78920746.00714493-3.85011163.00720683-7.70017222.00494051-11.55028534-.00025559-1.82123846-.00132657-3.64248167.00027613-5.46371459.00495911-2.51445581.00507368-5.0285549-.00264493-7.54298401-.01380158-.73740921.00404847-1.47481842.00809693-2.23457337.01226807-4.01651524-.0330473-7.11481256-.49345067-10.73222351-2.27105713.33-1.98.66-3.96 1-6h2c0-.99 0-1.98 0-3-.58676514.01047363-1.17353027.02094727-1.77807617.03173828-10.94930129.16794385-21.81238994.12777803-32.72192383-.90673828-.85231201-.07847168-1.70462402-.15694336-2.58276367-.23779297-4.84769087-.50366875-9.27415049-1.40191882-13.91723633-2.88720703 0-.99 0-1.98 0-3 3.1647223-1.58236115 6.57747917-1.18000908 10.0546875-1.20532226 1.24918465-.0148494 1.24918465-.0148494 2.52360535-.02999878 2.76553981-.03169287 5.53109642-.05642127 8.29670715-.08108521 1.92375118-.02058099 3.84749794-.04157776 5.77124024-.06297302 5.07932828-.0552987 10.15869832-.10463617 15.23809814-.15284729 5.13625071-.04990656 10.27243469-.10590236 15.40863037-.16113281 19.99366835-.21167235 19.99366835-.21167235 29.6819458-.28831864 1.78039214-.01610812 3.56071237-.0397899 5.34100342-.06467819z" fill="#131313" transform="translate(264.315918 386.953644)"/><path d="m0 0c10.23652707 3.39510262 21.85668605 3.40808548 32.54296875 4.3125v4c-12.79316153.34187563-24.53376742.15503417-37-3-1.81144055-.40065374-3.623791-.79724373-5.4375-1.1875-1.175625-.268125-2.35125-.53625-3.5625-.8125.57944932 1.99863756.57944932 1.99863756 2 4 5.5842788 2.66813933 11.5685324 2.40164277 17.63085937 2.56640625.7753711.02964844 1.55074219.05929687 2.34960938.08984375.70020264.01869141 1.40040527.03738281 2.12182617.05664062 1.89770508.28710938 1.89770508.28710938 4.89770508 2.28710938-.5259375 1.175625-.5259375 1.175625-1.0625 2.375-.309375.86625-.61875 1.7325-.9375 2.625l1 2c3.3453879 1.1151293 5.91758812 1.13299072 9.4375 1.125 1.13308594.00257813 2.26617187.00515625 3.43359375.0078125 3.30910258-.0353627 3.30910258-.0353627 7.12890625-1.1328125-2.97-1.65-5.94-3.3-9-5 0-.99 0-1.98 0-3l26 2c-1.13304992 3.39914975-2.12518475 4.05254451-5 6 2.5649993 1.28249965 4.81145403 1.42254264 7.6640625 1.75390625 1.12148437.13212891 2.24296875.26425781 3.3984375.40039063 1.175625.13470703 2.35125.26941406 3.5625.40820312 1.18335938.13857422 2.36671875.27714844 3.5859375.41992188 2.92931428.34254078 5.85899129.68158398 8.7890625 1.01757812v4c-10.64651382 1.95779358-20.07317381 2.03202446-30.8203125.6328125-4.85726195-.6090145-8.36378717-.50907049-13.046875.875-7.09194612 1.63660295-13.83511055 1.09087433-20.1328125-2.5078125-3.25522242-2.63936953-4.67988529-5.03965587-6-9-.6290625.02320313-1.258125.04640625-1.90625.0703125-6.99540396.14749346-13.21073224.2361017-18.90625-4.3203125-2.22192329-2.79327499-3.74776602-5.49165468-5.1875-8.75-7.06608191-.13794954-13.97360585.25194283-21 1 0-2.31 0-4.62 0-7 13.67998175-4.83165313 30.12541204-3.34222129 43.45703125 1.6875z" fill="#2f2f2e" transform="translate(112.457031 356.6875)"/><path d="m0 0c5.40158852 3.84343799 9.75977986 8.31462284 11 15 .56371175 8.29306711.89546876 15.18854247-4.51171875 21.8671875-5.14788383 5.57591012-10.87486946 8.4309423-18.44921875 9.1328125-6.99676385 0-13.71508084-2.7906384-18.73828125-7.640625-5.39817493-6.01249508-6.84026647-11.16358257-6.671875-19.2265625.95286364-8.04417519 5.16030343-13.84971494 11.40625-18.79296875 7.68640407-5.24142464 17.9532707-4.65642406 25.96484375-.33984375zm-23.8125 13.3125c-1.93475111 4.37864725-2.37489151 7.5006871-1.625 12.25 1.797005 4.29718586 3.50328604 5.96040232 7.4375 8.4375 3.99382695 1.28884455 7.22093185 1.25469536 11.25-.0625 3.86704926-2.72451198 6.29136253-5.32607441 7.1328125-10.1171875.20468885-4.05283932-.22538517-6.49334805-2.0078125-10.1953125-3.39666762-3.75421158-6.34680625-5.37147578-11.375-6-4.68690669.58586334-7.86765766 1.93028736-10.8125 5.6875z" fill="#202020" transform="translate(420 227)"/><path d="m0 0c.5583252.31984863 1.11665039.63969727 1.69189453.96923828 2.55287821 1.14007317 4.45468785 1.36690198 7.23779297 1.52294922.95422852.06316406 1.90845703.12632812 2.89160156.19140625 1.00772461.06316406 2.01544922.12632812 3.05371094.19140625 20.73812566 1.53375044 20.73812566 1.53375044 29.125 7.125.1875 3.125.1875 3.125 0 6-6.56864085 2.29138634-13.09588805 2.62732574-20 3-.7518457.04511719-1.50369141.09023438-2.27832031.13671875-73.96669847 4.36660206-73.96669847 4.36660206-89.72167969-6.13671875 0-.66 0-1.32 0-2 8.5896172-.15960063 17.06205586.36786867 25.625 1 23.74005457 1.65817423 47.71139894 1.81596853 71.375-1-2.64-.33-5.28-.66-8-1 0-.33 0-.66 0-1l12-1c-2.54013494-.4889606-5.08115666-.96844752-7.625-1.4375-.7638501-.14123291-1.5277002-.28246582-2.31469727-.42797852-6.16005202-1.08834615-12.13998072-1.52280526-18.40014648-1.63061523-.87785156-.16628906-1.75570312-.33257812-2.66015625-.50390625-1.37890625-2.03515625-1.37890625-2.03515625-2-4z" fill="#545453" transform="translate(259 366)"/><path d="m0 0c2.24052267 1.55077499 4.03387285 3.08428637 6 5v2c2.97-.66 5.94-1.32 9-2-.495-1.485-.495-1.485-1-3l3 1v3c-1.65.99-3.3 1.98-5 3h16c.495.99.495.99 1 2-.86882812-.03480469-1.73765625-.06960938-2.6328125-.10546875-8.67778859-.40757966-8.67778859-.40757966-16.3671875 3.10546875-1.34736973 1.65533995-2.68334336 3.32012773-4 5-.99 0-1.98 0-3 0-.14695312-.66386719-.29390625-1.32773437-.4453125-2.01171875-1.6027593-6.30971335-3.04624766-9.43074719-8.5546875-12.98828125-5.80230769-1.93410256-11.84037092-1.88303335-17.4375.6875-3.33476991 1.91229261-5.02196365 3.71791517-6.5625 7.3125-.20625 1.051875-.4125 2.10375-.625 3.1875-1.375 2.8125-1.375 2.8125-3.32421875 3.6015625-2.34391893.51914899-4.67461182.8750392-7.05078125 1.2109375-1.299375.433125-1.299375.433125-2.625.875-2.375.125-2.375.125-5.4375-1.8125-4.97025396-3.12539987-10.26774934-2.69498214-15.9375-2.0625-3.84456365.92219679-7.06046663 2.29534997-10.25 4.6875-1.75 1.3125-1.75 1.3125-5.75 1.3125 1.85555377-5.00999518 5.73437241-7.81141099 10.30078125-10.20703125 9.19065772-4.04503287 15.74621054-3.22635184 25.16796875-.39453125 3.09525674.73560114 5.49112915.50538221 8.53125-.3984375.226875-.886875.45375-1.77375.6875-2.6875 2.34753996-5.92474372 6.95192849-9.11896804 12.3125-12.3125 8.33645136-2.64454654 16.60099186-1.45947971 24 3z" fill="#565655" transform="translate(157 323)"/><path d="m0 0c5.29030405 3.48463141 8.15931321 6.93656118 10 13 .04125336 1.99957449.0477392 4.00056984 0 6 .86882812-.03480469 1.73765625-.06960938 2.6328125-.10546875 7.27443451-.17087598 12.23008204-.14511411 18.1171875 4.48046875 1.57947863 2.05332222 2.32443312 4.21695736 3.25 6.625.89755005.06731323.89755005.06731323 1.81323242.13598633 11.28762791.87044706 22.25435447 1.76993449 33.18676758 4.86401367v1c-5.49925421.04940929-10.99837942.08572395-16.49780273.10986328-1.87111665.01006239-3.74221755.02371363-5.61328125.04101563-2.68827193.02423793-5.37633608.03560172-8.06469727.04443359-.83759354.01032257-1.67518707.02064514-2.53816223.03128052-5.9444414.00115039-5.9444414.00115039-9.28605652-2.22659302-.28875-.969375-.5775-1.93875-.875-2.9375-.89447426-3.11978433-.89447426-3.11978433-3.125-5-7.30198131-2.58611838-15.05345072.26962238-22 2.9375-1-3-1-3 .5-6.25 1.78753627-3.93920029 1.70857345-6.51999293.5-10.75-1.20757217-1.95191174-2.49948681-3.73449217-3.94140625-5.51953125-1.05859375-1.48046875-1.05859375-1.48046875-1.05859375-3.48046875-1.53720703.06960938-1.53720703.06960938-3.10546875.140625-1.36064781.03753511-2.7213273.07393341-4.08203125.109375-.67353516.03351563-1.34707031.06703125-2.04101562.1015625-3.76523565.07346801-5.60257292-.23763007-8.75976563-2.3671875-.66386719-.65484375-1.32773438-1.3096875-2.01171875-1.984375 8.28934677-2.32683418 15.15825207-3.09804509 23 1z" fill="#484747" transform="translate(227 339)"/><path d="m0 0h2v2c1.24763626.0154612 1.24763626.0154612 2.52047729.03123474 7.96809827.09934938 15.93614616.20201523 23.90415764.30810452 4.09313581.05438875 8.1862788.10764102 12.27946663.15797519 51.69982642.63828194 51.69982642.63828194 71.29589844 2.50268555-.33.99-.66 1.98-1 3-25.57604979 1.71779439-51.05609234 2.32217222-76.68701172 2.26074219-4.92980868-.01165267-9.85940564-.00463003-14.78920746.00714493-3.85011163.00720683-7.70017222.00494051-11.55028534-.00025559-1.82123846-.00132657-3.64248167.00027613-5.4637146.00495911-2.5144558.00507367-5.02855489-.00264493-7.542984-.01380158-.73740922.00404846-1.47481843.00809693-2.23457337.01226807-4.01651524-.0330473-7.11481256-.49345067-10.73222351-2.27105713.33-1.32.66-2.64 1-4 .33.99.66 1.98 1 3l71 1c0-.66 0-1.32 0-2-26.235-.99-26.235-.99-53-2-.66-1.32-1.32-2.64-2-4z" fill="#525354" transform="translate(238 397)"/><path d="m0 0c3.22903262.13964052 6.45833996.27087706 9.68774414.40161133 2.05926608.08739042 4.11851178.17526277 6.17773438.26367187.9623909.03858628 1.92478179.07717255 2.91633606.1169281.88910568.03996598 1.77821136.07993195 2.69425964.12110901.78002884.03330918 1.56005768.06661835 2.36372375.10093689 2.0373993.19618225 2.0373993.19618225 5.0373993 1.19618225v2c-32.6220576 3.39744382-65.34565289 4.3188362-98 1 0-.99 0-1.98 0-3 4.18116918-2.09058459 9.48065859-1.63239975 14.08935546-1.92993164 1.97980148-.12893166 3.95891498-.26829465 5.93798829-.40795898 16.4001936-1.08735082 32.68989334-.57704821 49.09545898.13745117z" fill="#3f3f3f" transform="translate(393.122803 383.799561)"/><path d="m0 0c1.11797974.01610321 1.11797974.01610321 2.25854492.03253174 8.2615067.12451648 16.49547657.45067796 24.74145508.96746826.70116943.04382813 1.40233887.08765625 2.12475586.1328125 18.99906092 1.20049568 37.95724548 2.73317032 56.87524414 4.8671875.70036377.0776358 1.40072754.15527161 2.12231445.23526001 8.74296369.97989085 17.35706929 2.34442802 25.98852539 4.02401733 4.85116339.92394412 9.71909837 1.70237137 14.59570313 2.47827149 15.59337453 2.4862828 30.92091675 5.64328813 46.29345703 9.26245117v1c-6.51240103.23281672-11.82141442-.48035954-18.0625-2.25-16.60236845-4.40953892-33.59980542-6.70416971-50.62817383-8.79931641-.90129638-.11134277-1.80259277-.22268554-2.73120117-.33740234-.78987305-.09498779-1.57974609-.18997559-2.39355469-.2878418-2.18457031-.32543945-2.18457031-.32543945-4.22753906-.84399414-3.34224298-.82221846-6.7811209-.85933353-10.20703125-1.04394531-.74507812-.04318359-1.49015625-.08636719-2.2578125-.13085938-1.8305365-.10560787-3.66133926-.20658263-5.4921875-.30664062 0-.66 0-1.32 0-2-.67546875.01160156-1.3509375.02320313-2.046875.03515625-.89203125.00902344-1.7840625.01804687-2.703125.02734375-1.32257813.01740234-1.32257813.01740234-2.671875.03515625-2.578125-.09765625-2.578125-.09765625-4.37548828-.57250977-4.98079439-1.18750706-10.2325967-1.18405593-15.32763672-1.52514648-1.14726562-.0825-2.29453125-.165-3.4765625-.25-21.97388826-1.50248809-43.94984339-1.91789646-65.97021484-1.88037109-3.40387969.00575465-6.80768211.00227544-10.2115593-.00345135-12.29597657-.01744978-24.54293998-.0206501-36.80797195.91116619-5.96706171.38976939-11.93166905.32856479-17.90869141.28515625-1.21558594-.00451172-2.43117187-.00902344-3.68359375-.01367188-2.9388585-.0115703-5.87760242-.02786431-8.81640625-.04882812 0-.33 0-.66 0-1 31.7055873-2.79667677 63.18107483-3.48672382 95-3z" fill="#a8a9aa" transform="translate(331 411)"/><path d="m0 0 2.4375.9375v1c-1.04800781-.01160156-2.09601563-.02320313-3.17578125-.03515625-1.37890447-.0093803-2.75781086-.01848025-4.13671875-.02734375-.69029297-.00837891-1.38058594-.01675781-2.09179688-.02539062-3.14400562-.01518844-5.58990331.08595735-8.59570312 1.08789062v2c-.66 0-1.32 0-2 0v302c-.33 0-.66 0-1 0-.09151511-38.51527697-.16201816-77.03053759-.20426132-115.54590125-.00500295-4.5450025-.01018022-9.09000478-.01546524-13.63500695-.00104924-.90484473-.00209849-1.80968945-.00317952-2.74195371-.01741483-14.65950417-.04895844-29.31894573-.0857051-43.97841273-.03737946-15.03709525-.05961832-30.07415766-.0677428-45.11129747-.005494-9.28199852-.02285881-18.56382008-.05531189-27.84576414-.02111093-6.36122095-.02754196-12.72235015-.02233964-19.0836036.00256714-3.67254914-.00142366-7.34478859-.02281639-11.01728294-.02300893-3.97893311-.01514907-7.95746036-.00419617-11.93645287-.01165136-1.16439313-.02330273-2.32878625-.03530717-3.52846402.05836626-7.80804855.05836626-7.80804855 2.42138887-11.76988059 4.9989646-4.30945248 10.71103494-2.51696788 16.65743637-.74347973z" fill="#9d9f9d" transform="translate(67.5625 153.0625)"/><path d="m0 0c2.375.3125 2.375.3125 5 1 2.4737539 3.71063085 2.64950116 6.69810918 2 11-2.32387898 4.44568153-5.78260388 6.44416193-10.3125 8.26953125-8.05383727 2.1890517-16.05847133 1.40381825-23.59765625-2.06640625-4.65454832-2.67962782-7.75611612-6.4060182-10.08984375-11.203125.33-.66.66-1.32 1-2 2.43874429 1.08388635 4.25285366 2.21185036 6.3125 3.9375 6.87906629 5.27928343 13.17098367 5.94987721 21.6875 5.0625 2.93724463-.82563094 5.79201313-1.79201313 8-4 .07205511-1.68608966.08386068-3.37500659.0625-5.0625-.00902344-.91910156-.01804688-1.83820313-.02734375-2.78515625-.01160156-.71027344-.02320313-1.42054688-.03515625-2.15234375z" fill="#535453" transform="translate(214 353)"/><path d="m0 0c5.76230259.41418821 8.90374145 1.8999231 13.4375 5.4375.54076172.40798828 1.08152344.81597656 1.63867188 1.23632812 1.3552963 1.0503118 2.64611891 2.18273753 3.92382812 3.32617188v2h2c1.48352339 1.96982358 2.81432796 3.91795296 4.125 6 .3930835.6185083.78616699 1.2370166 1.19116211 1.87426758 2.99711688 4.81351497 5.69340652 9.75152598 8.24633789 14.81323242.34627441.68255859.69254883 1.36511719 1.04931641 2.06835938 1.44019551 2.93195813 2.38818359 4.93471552 2.38818359 8.24414062-.99-.33-1.98-.66-3-1 0-.66 0-1.32 0-2-.66 0-1.32 0-2 0-1.48828125-1.80859375-1.48828125-1.80859375-3.3125-4.4375-9.19325883-12.9039924-17.8630506-25.02270913-30.6875-34.5625.33-.99.66-1.98 1-3z" fill="#383838" transform="translate(255 294)"/><path d="m0 0c7.63853955 1.35148304 14.95147809 3.39853486 22.375 5.625 55.98885828 16.36133516 114.50170481 24.09470887 172.625 27.375v1c-3.70831663.02918874-7.41660342.04686218-11.125.0625-1.04671875.00837891-2.0934375.01675781-3.171875.02539062-5.05379704.01599303-9.72154391-.20183865-14.703125-1.08789062-4.78984457-.30698123-9.588279-.44080869-14.38476562-.60546875-.96228516-.03738281-1.92457032-.07476562-2.91601563-.11328125-.87825439-.03029297-1.75650879-.06058594-2.66137695-.09179688-2.0378418-.18945312-2.0378418-.18945312-3.0378418-1.18945312-2.1216622-.18826017-4.24800345-.32446005-6.375-.4375-7.08428371-.4598318-13.84031881-1.52732643-20.76904297-3.02636719-6.46655706-1.35935175-12.91726665-2.18236351-19.48095703-2.91113281-8.41480628-.98868985-16.39775252-2.42014183-24.5625-4.6484375-4.22729822-1.08281204-8.45019549-1.87414844-12.75-2.6015625-.71978027-.12246094-1.43956055-.24492187-2.18115234-.37109375-.69045411-.11730469-1.38090821-.23460937-2.09228516-.35546875-6.61457583-1.13197896-12.65772762-2.52017997-18.890625-4.99609375-2.12450814-.7965201-2.12450814-.7965201-5.3984375-1.15234375-3.35698012-.47956859-6.10251372-1.47505424-9.24853516-2.68896484-4.61743635-1.66331854-9.40458413-2.78932695-14.15576172-4.00439454-2.04801914-.54488582-4.07452314-1.16936951-6.09570312-1.80664062-.33-.66-.66-1.32-1-2z" fill="#979798" transform="translate(70 155)"/><path d="m0 0c1.27716385-.00629425 2.5543277-.0125885 3.87019348-.01907349 1.38815787-.00151095 2.7763161-.00271238 4.16447449-.00363159 1.46070915-.00394942 2.92141778-.00809401 4.38212585-.01242065 3.89894349-.00932343 7.79784368-.01038929 11.69679642-.00828934 2.41220108.00117822 4.82439777.00064821 7.23659897-.00001144 19.97072696.00117328 39.9113597.18946556 59.86416626 1.12619018 1.41384979.06521347 1.41384979.06521347 2.85626221.13174439 2.59660192.12362717 5.19246303.25633181 7.78826904.39559936.74859787.03860138 1.49719574.07720276 2.26847839.11697388 5.03473338.29830388 5.03473338.29830388 7.27449036 1.41818237 3.7243982.23370228 7.44257635.39427067 11.171875.51757813 4.66777882.20344759 8.39256122.91367185 12.828125 2.48242187 3.16588446.34267876 6.30845197.49980084 9.48828125.65625.82886719.1134375 1.65773437.226875 2.51171875.34375.33.66.66 1.32 1 2-3.66672738-.29090618-7.33336832-.58289022-11-.875-.99128906-.07863281-1.98257813-.15726562-3.00390625-.23828125-5.46288605-.4356903-10.92472603-.87904139-16.38500977-1.3461914-14.17387953-1.20872977-28.35071659-2.28018225-42.54858398-3.16552735-1.57752548-.09855285-1.57752548-.09855285-3.18692017-.19909668-13.52264715-.8298844-27.01308452-1.45944341-40.56307983-1.42590332-1.89963501.00459229-1.89963501.00459229-3.83764649.00927735-7.07839902.07368846-14.08687671.4756841-21.1430664 1.02246093-4.90638639.32141199-9.79214153.32732906-14.70678711.28076172-.9384375-.00451172-1.876875-.00902344-2.84375-.01367187-2.26049141-.01153312-4.52083063-.02779646-6.78125-.04882813 5.33846694-3.20308016 11.52853168-3.12442094 17.59814453-3.14526367z" fill="#666767" transform="translate(275.598145 426.854736)"/><path d="m0 0c1.32668701-.01367111 1.32668701-.01367111 2.68017578-.02761841 1.05272095-.01491737 1.05272095-.01491737 2.12670899-.03013611 2.06089597.11429878 3.89489767.54289825 5.87719726 1.10411072v3c-2.89568747.64649305-5.79154278 1.29221732-8.6875 1.9375-.81662109.18240234-1.63324219.36480469-2.47460937.55273438-2.27841739.5073399-4.55795135 1.00931721-6.83789063 1.50976562-.928125.20625-1.85625.4125-2.8125.625-2.21375774.37950133-4.25676948.47552086-6.5.4375-1.8253125-.0309375-1.8253125-.0309375-3.6875-.0625 3.63423209-2.32590853 6.77088331-2.16265833 11-2 .33-.99.66-1.98 1-3-26.07 0-52.14 0-79 0 .66.66 1.32 1.32 2 2-2.31-.33-4.62-.66-7-1 0-.99 0-1.98 0-3 3.1647223-1.58236115 6.57747917-1.18000908 10.0546875-1.20532226 1.24918465-.0148494 1.24918465-.0148494 2.52360535-.02999878 2.76553981-.03169287 5.53109642-.05642127 8.29670715-.08108521 1.92375118-.02058099 3.84749794-.04157776 5.77124024-.06297302 5.07932828-.0552987 10.15869832-.10463617 15.23809814-.15284729 5.13625071-.04990656 10.27243469-.10590236 15.40863037-.16113281 19.99366835-.21167235 19.99366835-.21167235 29.6819458-.28831864 1.78039214-.01610812 3.56071237-.0397899 5.34100342-.06467819z" fill="#707070" transform="translate(264.315918 386.953644)"/><path d="m0 0c1 2 1 2 .4375 5-1.4375 3-1.4375 3-4.0625 4.375-3.92045035.72600932-7.39345901.76229452-11.375.625v3c4.41131991.16966615 7.12354057.00075325 11-2 3.25-.125 3.25-.125 6 0v2c-2.22870073.50012239-4.45769783.99524899-6.69140625 1.47265625-2.38375624.5052333-2.38375624.5052333-4.93359375 1.40234375-2.375.125-2.375.125-5.4375-1.8125-4.97025396-3.12539987-10.26774934-2.69498214-15.9375-2.0625-3.84456365.92219679-7.06046663 2.29534997-10.25 4.6875-1.75 1.3125-1.75 1.3125-5.75 1.3125 1.85555377-5.00999518 5.73437241-7.81141099 10.30078125-10.20703125 9.19065772-4.04503287 15.74621054-3.22635184 25.16796875-.39453125 3.09525674.73560114 5.49112915.50538221 8.53125-.3984375.309375-.969375.61875-1.93875.9375-2.9375 1.0625-3.0625 1.0625-3.0625 2.0625-4.0625z" fill="#626263" transform="translate(123 328)"/><path d="m0 0c1.60405891-.02792366 3.20827494-.0467943 4.8125-.0625.89332031-.01160156 1.78664062-.02320313 2.70703125-.03515625 2.83097404.07943249 5.55273446.29360828 8.36523437.58398437 6.4792021.59991192 12.93592281.73703399 19.43945313.83007813 1.22741409.0207811 2.45482819.04156219 3.71943665.06297302 3.88123026.06484621 7.76252219.12407547 11.6438446.18312073 2.64779257.04324712 5.29557914.08686327 7.94335938.13085938 6.45631698.10647993 12.91269388.20836101 19.36914062.30664062v2c-11.83647677 1.03530849-23.62216366 1.15463044-35.49804688 1.13037109-3.12830421-.00537341-6.25646566-.00001664-9.38476562.00634766-10.0854842.00300145-20.07739398-.07236972-30.1171875-1.13671875 0-.66 0-1.32 0-2-.99-.33-1.98-.66-3-1 0-.33 0-.66 0-1z" fill="#050504" transform="translate(197 379)"/><path d="m0 0c5.22020086 4.34791341 10.00698027 8.95379686 14.75 13.8125 6.106581 6.19194792 12.32634114 11.90674324 19.25 17.1875-.33.66-.66 1.32-1 2-13.36649113-1.55820662-27.18415018-18.99250128-36-28l2-1c.65213292-2.02463255.65213292-2.02463255 1-4z" fill="#444443" transform="translate(498 283)"/><path d="m0 0c2 0 2 0 4.125 2 .61875.66 1.2375 1.32 1.875 2 .66-1.32 1.32-2.64 2-4 4.5095886 6.31977558 8.86903212 12.73617855 13.1875 19.1875.51079102.75974121 1.02158203 1.51948242 1.54785156 2.30224609 8.26464844 12.38617625 8.26464844 12.38617625 8.26464844 16.51025391-3.29406201-1.39446254-4.95404753-2.88121044-7.0625-5.75-2.59422802-3.46082239-5.21597817-6.88901155-7.90087891-10.27954102-16.03662109-20.2551788-16.03662109-20.2551788-16.03662109-21.97045898z" fill="#424242" transform="translate(287 308)"/><path d="m0 0c.84949219.14566406 1.69898437.29132813 2.57421875.44140625 11.74866513 1.91568884 23.60228598 3.19824056 35.42578125 4.55859375v4c-12.79316153.34187563-24.53376742.15503417-37-3-1.81144055-.40065374-3.623791-.79724373-5.4375-1.1875-1.7634375-.4021875-1.7634375-.4021875-3.5625-.8125 0-.33 0-.66 0-1l9-1c-.33-.66-.66-1.32-1-2z" fill="#484848" transform="translate(107 356)"/><path d="m0 0c1.86011719-.00773437 1.86011719-.00773437 3.7578125-.015625 3.1171875.265625 3.1171875.265625 5.1171875 2.265625-2.48164099 2.48164099-8.22350721 2.38618316-11.58203125 2.98828125-4.67700941 1.38439478-6.44524655 3.57064882-9.10546875 7.51171875-1.16391834 2.21698731-1.8593525 4.05300352-2.3125 6.5-1.0725.12375-2.145.2475-3.25.375-3.57499688.37723439-3.57499688.37723439-5.75 1.75-3.10362101 1.35783419-5.75732526.4985913-9-.125 0-.99 0-1.98 0-3 6.93-.99 6.93-.99 14-2 .226875-1.381875.45375-2.76375.6875-4.1875 1.16760829-5.26665865 3.48883065-7.98353235 8.03125-10.92578125 3.18577676-1.23830706 5.99977365-1.15094203 9.40625-1.13671875z" fill="#2d2d2d" transform="translate(140.125 319.75)"/><path d="m0 0h2v2c1.24763626.0154612 1.24763626.0154612 2.52047729.03123474 7.96809827.09934938 15.93614616.20201523 23.90415764.30810452 4.09313581.05438875 8.1862788.10764102 12.27946663.15797519 51.69982642.63828194 51.69982642.63828194 71.29589844 2.50268555-.33.99-.66 1.98-1 3-3.3 0-6.6 0-10 0 0-.66 0-1.32 0-2-1.61012466.00761353-1.61012466.00761353-3.2527771.01538086-11.41502099.03692701-22.81310877-.15521942-34.2237854-.45288086-1.79030879-.04503708-3.58062263-.08987359-5.37094116-.13452148-4.64571241-.1163823-9.29135243-.23543464-13.9369812-.35510254-4.76710905-.12230448-9.53428354-.24200171-14.30145264-.36193848-9.3047522-.23447177-18.60942981-.47177302-27.9140625-.7109375-.66-1.32-1.32-2.64-2-4z" fill="#898a8a" transform="translate(238 397)"/><path d="m0 0v2c-3.61830789 1.20610263-7.16564984 1.45511599-10.9375 1.8125-7.01536439.72026328-13.89865293 1.79831402-20.8125 3.1875-.83265381.16604736-1.66530762.33209473-2.52319336.50317383-4.36873193.90487221-8.49150876 2.08308017-12.72680664 3.49682617-1.93039443.33548924-3.8691338.62539333-5.8125.875-21.42186815 2.32887111-21.42186815 2.32887111-40.1875 10.125-2.33297433.04092937-4.66705225.04241723-7 0 4.80690807-3.20460538 10.32586202-4.15854837 15.875-5.625.97673676-.25928284.97673676-.25928284 1.97320557-.52380371 62.85331961-16.61423319 62.85331961-16.61423319 82.15179443-15.85119629z" fill="#8e8d8f" transform="translate(178 421)"/><path d="m0 0c11.62539231.27657676 22.96250455.63148245 34.359375 3.05859375 4.99821143 1.05784064 10.03716353 1.830729 15.08129883 2.63500977 15.68255203 2.50679547 31.09756947 5.66622918 46.55932617 9.30639648v1c-6.51240103.23281672-11.82141442-.48035954-18.0625-2.25-16.60236845-4.40953892-33.59980542-6.70416971-50.62817383-8.79931641-.90129638-.11134277-1.80259277-.22268554-2.73120117-.33740234-.78987305-.09498779-1.57974609-.18997559-2.39355469-.2878418-2.18457031-.32543945-2.18457031-.32543945-4.22753906-.84399414-3.34224298-.82221846-6.7811209-.85933353-10.20703125-1.04394531-.74507813-.04318359-1.49015625-.08636719-2.2578125-.13085938-1.8305365-.10560787-3.66133926-.20658263-5.4921875-.30664062 0-.66 0-1.32 0-2z" fill="#838282" transform="translate(410 418)"/><path d="m0 0c2.43874429 1.08388635 4.25285366 2.21185036 6.3125 3.9375 3.13187763 2.40353399 6.02369552 3.62571393 9.6875 5.0625v2h17v2c-4.00638609 2.78611216-8.17113554 2.14646892-12.8125 1.875-.78181641-.02320313-1.56363281-.04640625-2.36914062-.0703125-6.80727994-.36396484-11.39606579-2.25490477-16.19335938-7.3046875-1.47851803-2.27464312-2.33760406-3.81763788-2.625-6.5z" fill="#0f0f0f" transform="translate(178 358)"/><path d="m0 0 2.9375.0625v1c-1.65 0-3.3 0-5 0 .495.78375.99 1.5675 1.5 2.375 1.5 2.625 1.5 2.625 1.5 4.625h2c4.28873219 4.16197164 7.84120621 8.94592993 11 14-1.671875.74609375-1.671875.74609375-4 1-2.515625-1.58984375-2.515625-1.58984375-5.25-3.9375-.96035156-.82242187-1.92070313-1.64484375-2.91015625-2.4921875-3.75142764-3.39537743-7.35336886-6.90401942-10.83984375-10.5703125l2-1 3 1c-.020625-.804375-.04125-1.60875-.0625-2.4375.09133162-3.74459638.32409852-3.54743058 4.125-3.625z" fill="#333233" transform="translate(122.0625 288.9375)"/><path d="m0 0c6.98194719-.12707285 13.85079369.16148782 20.81030273.71142578 21.38601962 1.67261796 42.75274409 1.48547975 64.18969727 1.28857422v1c-10.95164909 1.02065045-21.83316025 1.15489255-32.82348633 1.13037109-2.869438-.00538126-5.73872089-.00001201-8.60815429.00634766-8.20841764.00271126-16.33864004-.00703368-24.50756836-.9140625-2.58940815-.2797702-5.14552081-.32287756-7.74829102-.28515625-1.24330078.01353516-1.24330078.01353516-2.51171875.02734375-.89138672.01740234-.89138672.01740234-1.80078125.03515625l2 2c-3.73487777-.4979837-5.81237635-.87491756-9-3 0-.66 0-1.32 0-2z" fill="#929190" transform="translate(191 377)"/><path d="m0 0c0 2.83967231-.40267181 5.23735711-1 8l2 1c-3.11692909 3.17469938-6.24483546 6.33835392-9.375 9.5-.88945312.90621094-1.77890625 1.81242187-2.6953125 2.74609375-.85078125.85722656-1.7015625 1.71445312-2.578125 2.59765625-.78552246.79599609-1.57104492 1.59199219-2.38037109 2.41210938-1.97119141 1.74414062-1.97119141 1.74414062-3.97119141 1.74414062.53031138-4.5076467 2.25221116-7.41954788 5-11h2c.66-1.65 1.32-3.3 2-5h2c.25523437-.57234375.51046875-1.1446875.7734375-1.734375 1.35743409-2.50736233 2.94630354-4.3986706 4.8515625-6.515625.63164062-.70640625 1.26328125-1.4128125 1.9140625-2.140625.48210937-.53109375.96421875-1.0621875 1.4609375-1.609375z" fill="#4d4c4d" transform="translate(230 285)"/><path d="m0 0h1c.04898438.71027344.09796875 1.42054688.1484375 2.15234375.07476562.91910156.14953125 1.83820313.2265625 2.78515625.06960937.91652344.13921875 1.83304687.2109375 2.77734375.13664062.75410156.27328125 1.50820313.4140625 2.28515625l2 1c-1.15192003 3.4557601-1.91134634 4.19828537-5 6-2.5.5625-2.5.5625-5 0-.61875-.94875-1.2375-1.8975-1.875-2.875-2.65224689-3.90036308-4.60068107-4.25493867-9.125-5.125 0-.99 0-1.98 0-3 6.10953104-1.92932559 10.48193871.45907454 16 3z" fill="#525152" transform="translate(193 340)"/><path d="m0 0v1c-.6034021.01030746-1.2068042.02061493-1.82849121.03123474-6.36079964.10937152-12.72149398.22383856-19.08215332.34107971-2.3642351.04293639-4.72849306.08463424-7.09277344.125-15.88419566.23465413-15.88419566.23465413-31.74658203 1.03393555-7.25990787.5123459-14.4744486.5840892-21.75.53125-1.21558594-.00451172-2.43117187-.00902344-3.68359375-.01367188-2.9388585-.0115703-5.87760242-.02786431-8.81640625-.04882812 0-.33 0-.66 0-1 31.44662868-2.91883825 62.4489376-3.1141172 94-2z" fill="#787979" transform="translate(330 412)"/><path d="m0 0c3 1 3 1 5 4 2.09985255.55128825 2.09985255.55128825 4.55078125.625.92087402.06525879 1.84174805.13051758 2.79052734.19775391 1.47073975.08773681 1.47073975.08773681 2.97119141.17724609 8.51217179.62432745 16.45359024 1.66964818 24.6875 4v1c-2.54173977.02716824-5.08318415.04691969-7.625.0625-1.06927734.01256836-1.06927734.01256836-2.16015625.02539062-4.20754697.01930068-8.05913284-.36700199-12.21484375-1.08789062-3.12168803-.25559131-6.24676704-.41032918-9.375-.5625-.83144531-.04318359-1.66289062-.08636719-2.51953125-.13085938-2.03500103-.10525867-4.07021578-.20637134-6.10546875-.30664062 0-2.64 0-5.28 0-8z" fill="#070707" transform="translate(256 365)"/><path d="m0 0 1 3c-.99 1.485-.99 1.485-2 3l3 1c-7.01842425 3.27323474-13.26529967 4.70590493-21 5 0-1.32 0-2.64 0-4 2.78871177-1.33957921 5.58143062-2.67058435 8.375-4 .7940625-.3815625 1.588125-.763125 2.40625-1.15625.76054687-.3609375 1.52109375-.721875 2.3046875-1.09375.7017334-.33515625 1.4034668-.6703125 2.12646484-1.015625 1.78759766-.734375 1.78759766-.734375 3.78759766-.734375z" fill="#353535" transform="translate(417 305)"/><path d="m0 0c11.88024734-.10082466 23.75285591-.12700017 35.625.375.85682373.03085693 1.71364746.06171387 2.59643555.09350586 4.64053514.22309819 8.36974896.97399882 12.77856445 2.53149414 3.16588446.34267876 6.30845197.49980084 9.48828125.65625.82886719.1134375 1.65773438.226875 2.51171875.34375.495.99.495.99 1 2-3.6667274-.29090618-7.33337895-.58275648-11-.875-1.12325684-.08950928-2.24651367-.17901855-3.40380859-.27124023-7.74210296-.61930334-15.48195802-1.26220502-23.22119141-1.91625977-8.78671652-.74080715-17.57332006-1.40150026-26.375-1.9375 0-.33 0-.66 0-1z" fill="#868687" transform="translate(360 430)"/><path d="m0 0c15 18 15 18 15 25-3.42913302-1.43005329-5.15481859-3.10746981-7.375-6.0625-.59683594-.7940625-1.19367188-1.588125-1.80859375-2.40625-2.70997038-3.77647485-5.29605574-7.62609152-7.81640625-11.53125l4 1c0-.66 0-1.32 0-2-.66 0-1.32 0-2 0 0-1.32 0-2.64 0-4z" fill="#6f6f6f" transform="translate(303 321)"/><path d="m0 0c3.4374823-.02901394 6.87493312-.04680335 10.3125-.0625.97646484-.00837891 1.95292969-.01675781 2.95898438-.02539062.93779296-.00322266 1.87558593-.00644532 2.84179687-.00976563.86407471-.00523682 1.72814941-.01047363 2.6184082-.01586914 2.26831055.11352539 2.26831055.11352539 5.26831055 1.11352539v2c-16.37523865 1.85442541-32.52741647 2.24552119-49 2 0-.33 0-.66 0-1 8.38000387-1.09599874 16.6844987-1.11692784 25.125-1.0625 1.35156083.00502861 2.70312348.00958909 4.0546875.01367188 3.27348515.01169101 6.54687436.02807783 9.8203125.04882812 0-.66 0-1.32 0-2-4.62 0-9.24 0-14 0 0-.33 0-.66 0-1z" fill="#7f807f" transform="translate(398 385)"/><path d="m0 0c21.65441176 1.32720588 21.65441176 1.32720588 27 4-.33.99-.66 1.98-1 3-35.88955107.41277905-35.88955107.41277905-50-2 0-.33 0-.66 0-1 2.22909871-.02714735 4.45829367-.04646254 6.6875-.0625 1.24136719-.01160156 2.48273438-.02320313 3.76171875-.03515625 3.55078125.09765625 3.55078125.09765625 5.87304687.59765625 3.07792702.57472598 5.94146141.61249418 9.07226563.59765625 1.20205078-.00322266 2.40410156-.00644531 3.64257813-.00976563 1.2458789-.0083789 2.49175781-.01675781 3.77539062-.02539062 1.26521484-.00451172 2.53042969-.00902344 3.83398438-.01367188 3.11788672-.01176561 6.23567695-.0282054 9.35351562-.04882812-.79954102-.13132324-1.59908203-.26264648-2.42285156-.39794922-1.06186524-.17547363-2.12373047-.35094726-3.21777344-.53173828-1.57056152-.25885986-1.57056152-.25885986-3.17285156-.52294922-4.41448032-.75829489-8.8015382-1.63544157-13.18652344-2.54736328 0-.33 0-.66 0-1z" fill="#8d8e8d" transform="translate(482 355)"/><path d="m0 0c3.63396553 1.00943487 4.93391767 1.91605758 7.3125 4.9375 1.6875 3.0625 1.6875 3.0625 1.6875 6.0625-2.58592942-.49729412-4.41186554-1.22465393-6.75-2.5-3.89956059-1.7997972-6.990285-2.13278319-11.25-2.5 3.17539556 3.42578949 3.17539556 3.42578949 7 6v2c-.99 0-1.98 0-3 0-.66-.99-1.32-1.98-2-3-.99-.33-1.98-.66-3-1-.33-1.98-.66-3.96-1-6 6.625-.125 6.625-.125 10 1 .33-1.65.66-3.3 1-5z" fill="#343433" transform="translate(353 310)"/><path d="m0 0c4.56248659-.02906612 9.1249493-.04682113 13.6875-.0625 1.29357422-.00837891 2.58714844-.01675781 3.91992188-.02539062 1.87075195-.00483399 1.87075195-.00483399 3.77929687-.00976563 1.14686279-.00523682 2.29372559-.01047363 3.4753418-.01586914 2.84057722.10276732 5.37837737.46036123 8.13793945 1.11352539v2c-10.56 0-21.12 0-32 0-.33-.99-.66-1.98-1-3z" fill="#020203" transform="translate(260 402)"/><path d="m0 0c5.65316631 1.37046456 8.53900014 5.65324662 12 10 .56460937.66257812 1.12921875 1.32515625 1.7109375 2.0078125 1.2890625 1.9921875 1.2890625 1.9921875 1.2890625 5.9921875-3.14247575-.30064688-4.04458665-1.04744575-6.25390625-3.3984375-.76183594-.98226563-1.52367187-1.96453125-2.30859375-2.9765625-3.5003983-4.50840812-3.5003983-4.50840812-7.4375-8.625.33-.99.66-1.98 1-3z" fill="#5c5d5d" transform="translate(259 312)"/><path d="m0 0 2.4375.9375v1c-1.04800781-.01160156-2.09601563-.02320313-3.17578125-.03515625-1.37890447-.0093803-2.75781086-.01848025-4.13671875-.02734375-.69029297-.00837891-1.38058594-.01675781-2.09179688-.02539062-3.14400562-.01518844-5.58990331.08595735-8.59570312 1.08789062v2c-.66 0-1.32 0-2 0v43c-.33 0-.66 0-1 0-.09898364-6.17467586-.1715236-12.34888843-.21972656-18.52416992-.02009741-2.10001675-.0473801-4.19997766-.08203125-6.29980469-.04859989-3.02105497-.07122981-6.04136916-.08886719-9.06274414-.02064514-.93663986-.04129028-1.87327972-.06256104-2.83830261-.00147211-4.29044156.05107577-6.62514157 2.3526001-10.34455872 4.90404904-4.50677774 10.69982777-2.64643551 16.66308594-.86791992z" fill="#9c9d9b" transform="translate(67.5625 153.0625)"/><path d="m0 0c9.15564771-.34915606 17.95960217.72958023 27 2-.33.99-.66 1.98-1 3-7.71589817.1567564-15.31516461-.32546899-23-1 0-.66 0-1.32 0-2-.99-.33-1.98-.66-3-1 0-.33 0-.66 0-1z" fill="#0a0a0a" transform="translate(197 379)"/><path d="m0 0c3.41916726 1.70958363 4.49254956 5.55818373 6.125 8.875.55880859 1.10021484.55880859 1.10021484 1.12890625 2.22265625.35191406.70769531.70382812 1.41539062 1.06640625 2.14453125.32242676.6482373.64485352 1.29647461.97705078 1.96435547.70263672 1.79345703.70263672 1.79345703.70263672 4.79345703-.99-.33-1.98-.66-3-1 0-.66 0-1.32 0-2-.66 0-1.32 0-2 0-1.40268922-1.69491614-2.72390346-3.457835-4-5.25-.70125-.97453125-1.4025-1.9490625-2.125-2.953125-1.49691333-2.23289572-2.76077861-4.35951572-3.875-6.796875h5c0-.66 0-1.32 0-2z" fill="#4d4d4d" transform="translate(283 319)"/><path d="m0 0 2.625.9375c-4.69766975 5.66129431-9.74723372 10.85228904-15 16-.99-.33-1.98-.66-3-1 10.25199203-16.03237052 10.25199203-16.03237052 15.375-15.9375z" fill="#434344" transform="translate(237.375 301.0625)"/><path d="m0 0h1v35c-11-1-11-1-14-3-1.57072364-.37071275-3.15715504-.67779702-4.75-.9375-4.46713923-.81875719-8.16126873-2.10701983-12.25-4.0625 3.79374718-1.41265059 6.2950161-.5530586 10.078125.65234375 1.04575195.32734131 2.09150391.65468262 3.16894531.99194336 1.3209668.42676025 2.6419336.85352051 4.00292969 1.29321289l12.75 4.0625c0-11.22 0-22.44 0-34z" fill="#818082" transform="translate(552 412)"/><path d="m0 0c1.75570312.01353516 1.75570312.01353516 3.546875.02734375.89203125.01160156 1.7840625.02320313 2.703125.03515625v1c-2.14570969.27181121-4.291582.54233837-6.4375.8125-1.03386841.13039673-1.03386841.13039673-2.08862305.26342773-4.66343284.58412402-9.32918343 1.14433584-13.99731445 1.68969727-1.12092041.13172607-2.24184082.26345215-3.39672852.39916992-2.2449751.26319284-4.49025362.52381151-6.73583984.78173828-1.03777588.12205811-2.07555176.24411621-3.14477539.36987305-1.39472534.16157593-1.39472534.16157593-2.81762695.32641602-2.52203492.30842226-2.52203492.30842226-5.3815918 1.35717773-1.56118428.06740865-3.1250252.08514456-4.6875.0625-1.21236328-.01353516-1.21236328-.01353516-2.44921875-.02734375-.92232422-.01740234-.92232422-.01740234-1.86328125-.03515625 3.83363725-2.34277832 8.01349849-2.86951703 12.375-3.5625.79422363-.13003418 1.58844727-.26006836 2.40673828-.39404297 6.12917609-.96401587 12.19907736-1.52477412 18.39794922-1.83251953 2.70182506-.11543566 2.70182506-.11543566 4.78125-.73046875 2.94290165-.69344234 5.7722022-.57313735 8.7890625-.54296875z" fill="#929393" transform="translate(218.75 431.9375)"/><path d="m0 0c1.4375 2.0625 1.4375 2.0625 2 4-3.122002 2.08133467-3.93266989 2.2737822-7.5 2.25-1.16015625.00773437-1.16015625.00773437-2.34375.015625-2.15625-.265625-2.15625-.265625-5.15625-2.265625 1.44493392-3.73274596 1.44493392-3.73274596 3.6875-4.8125 3.31358055-.26866869 6.08001807.03430991 9.3125.8125z" fill="#666667" transform="translate(209 401)"/><path d="m0 0c.84949219.14566406 1.69898437.29132813 2.57421875.44140625 11.74866513 1.91568884 23.60228598 3.19824056 35.42578125 4.55859375v1c-3.79219129-.11140185-7.58352194-.24165376-11.375-.375-1.06089844-.0309375-2.12179688-.061875-3.21484375-.09375-6.65618413-.24501291-12.92834577-.98657884-19.41015625-2.53125.95865509 2.33075929.95865509 2.33075929 4 4-5.41798672-.69165788-10.6822785-1.75799248-16-3 0-.33 0-.66 0-1l9-1c-.33-.66-.66-1.32-1-2z" fill="#939292" transform="translate(107 356)"/><path d="m0 0 2 2c-.71285156.03738281-1.42570312.07476562-2.16015625.11328125-7.59379008.52124266-13.16556587 1.42693619-19.02734375 6.57421875-2.8125 2.3125-2.8125 2.3125-6.8125 2.3125 1.52115709-4.10712413 4.36289276-6.71266367 8-9 5.827368-2.0395788 11.83502708-2.77921591 18-2z" fill="#0e0f0f" transform="translate(102 335)"/><path d="m0 0c3.97830213.52746028 5.60207301 2.34871784 8.1875 5.3125 1.04220703 1.16982422 1.04220703 1.16982422 2.10546875 2.36328125 1.62833923 2.21707516 2.29554597 3.64035206 2.70703125 6.32421875-4.87737336-.41806057-6.8149909-2.4066564-10-6-.78375-.86625-1.5675-1.7325-2.375-2.625-.53625-.78375-1.0725-1.5675-1.625-2.375.33-.99.66-1.98 1-3z" fill="#59595a" transform="translate(491 294)"/><path d="m0 0v2c-10.89 0-21.78 0-33 0 0-.66 0-1.32 0-2 8.22081939-4.11040969 23.92424685-.57041771 33 0z" fill="#121213" transform="translate(339 403)"/><path d="m0 0 16 1v4c-22.41413115 4.12174752-22.41413115 4.12174752-32-1 .70608398.00523682 1.41216797.01047363 2.13964844.01586914 3.20344144.02080499 6.40686866.03380227 9.61035156.04663086 1.11117187.00837891 2.22234375.01675781 3.3671875.02539062 1.60488281.00483399 1.60488281.00483399 3.2421875.00976563.98452148.00523682 1.96904297.01047363 2.98339844.01586914 2.91374453-.03534739 2.91374453-.03534739 6.65722656-1.11352539-3.96-.33-7.92-.66-12-1 0-.66 0-1.32 0-2z" fill="#80807f" transform="translate(170 379)"/><path d="m0 0c6.17398461 3.15267299 10.94783982 7.28006804 16 12-.33.99-.66 1.98-1 3-1.92154764-.9063904-3.83706654-1.82556804-5.75-2.75-1.06734375-.51046875-2.1346875-1.0209375-3.234375-1.546875-2.88257255-1.62798139-4.81988809-3.25157408-7.015625-5.703125l5 1c-.66-.61875-1.32-1.2375-2-1.875-2-2.125-2-2.125-2-4.125z" fill="#6b6b6b" transform="translate(371 343)"/><path d="m0 0c2.43874429 1.08388635 4.25285366 2.21185036 6.3125 3.9375 3.13187763 2.40353399 6.02369552 3.62571393 9.6875 5.0625v1c-2.64-.33-5.28-.66-8-1 1.25541557 2.51083114 2.50063488 2.87125446 5 4-.99.495-.99.495-2 1-5.42670694-2.6128589-9.67094586-5.31954239-11.8125-11.25-.061875-.5775-.12375-1.155-.1875-1.75z" fill="#4f4f4f" transform="translate(178 358)"/><path d="m0 0c1.3642418 4.09272539.71091818 6.07914583-1 10-3.1875 1.375-3.1875 1.375-7 2-1.2375.226875-2.475.45375-3.75.6875-3.25.3125-3.25.3125-6.25-.6875 0-.99 0-1.98 0-3l14-2c.33-1.65.66-3.3 1-5 .99-.66 1.98-1.32 3-2z" fill="#050505" transform="translate(126 329)"/><path d="m0 0 2 1c-.99 1.485-.99 1.485-2 3l5 1c-2.97360762 1.98240508-6.00431483 3.83594021-9.0625 5.68359375-1.98422187 1.24565562-1.98422187 1.24565562-3.5 2.9765625-1.4375 1.33984375-1.4375 1.33984375-4.4375 1.33984375 1.48868707-4.60139641 3.74629855-7.50227094 7-11h2c0-.66 0-1.32 0-2 .99-.66 1.98-1.32 3-2z" fill="#555454" transform="translate(242 261)"/><path d="m0 0c-3.38864881 1.9532981-6.57689199 2.60297319-10.41796875 3.25390625-1.25490234.21462891-2.50980469.42925781-3.80273437.65039063-.6523462.10820068-1.30469239.21640136-1.97680665.32788085-1.96721757.32654219-3.93272475.66333473-5.89819335 1.00024415-6.62404948 1.1203681-13.2174041 2.11715904-19.90429688 2.76757812 3.31002822-2.92590523 6.09823393-3.65038292 10.41796875-4.38671875 1.25490234-.21591797 2.50980469-.43183594 3.80273437-.65429687.6523462-.10610596 1.30469239-.21221192 1.97680665-.32153321 1.9684191-.32142876 3.93336438-.66390049 5.89819335-1.00659179 6.72554151-1.13066079 13.0855852-1.9065887 19.90429688-1.63085938z" fill="#8e8d8e" transform="translate(171 439)"/><path d="m0 0c2.46325185 1.07913891 3.9424654 2.22051061 6 4-.66.33-1.32.66-2 1-.886875-.474375-1.77375-.94875-2.6875-1.4375-3.98021336-1.87745913-5.96162371-2.31265108-10.3125-1.5625-2.26177499 1.63999552-4.21848627 3.40630141-6.203125 5.37109375-1.796875 1.62890625-1.796875 1.62890625-4.796875 2.62890625-.04125.763125-.0825 1.52625-.125 2.3125-.875 2.6875-.875 2.6875-3.9375 4.5-.969375.391875-1.93875.78375-2.9375 1.1875 1.40191353-2.99254618 3.03367489-5.5954611 5-8.25.515625-.70640625 1.03125-1.4128125 1.5625-2.140625l1.4375-1.609375h2c.37125-.928125.37125-.928125.75-1.875 3.31971597-5.64351714 10.49850034-4.83875032 16.25-4.125z" fill="#656665" transform="translate(504 266)"/><path d="m0 0 2 1c-2.64 2.97-5.28 5.94-8 9 .33.99.66 1.98 1 3-3.78756477 3.61139896-3.78756477 3.61139896-6 5-2.875-.1875-2.875-.1875-5-1 4.98404168-6.03331362 10.41915303-11.5184171 16-17z" fill="#444343" transform="translate(106 289)"/><path d="m0 0v2c-3.67226417 1.22408806-7.29640786 1.49918234-11.125 1.875-7.1709278.73993292-14.2259097 1.78928588-21.30322266 3.15966797-3.57659366.67929926-6.92909449 1.12033981-10.57177734.96533203 2.84517534-1.55544893 5.378541-2.41251498 8.5625-3 .87390381-.1640332 1.74780762-.32806641 2.64819336-.49707031.92047119-.1659668 1.84094238-.3319336 2.78930664-.50292969.94174072-.17370117 1.88348145-.34740234 2.85375977-.52636719 2.71425528-.49787424 5.4300032-.98670592 8.14624023-1.47363281 1.26714844-.23203125 2.53429687-.4640625 3.83984375-.703125 4.8109072-.84934049 9.26096445-1.3824504 14.16015625-1.296875z" fill="#979899" transform="translate(178 421)"/><path d="m0 0c.80050781.15597656 1.60101563.31195313 2.42578125.47265625 5.0536236.7456166 10.1036879.87773003 15.20507813 1.04492187.77537109.03416016 1.55074218.06832032 2.34960937.10351563.70020264.02505615 1.40040527.0501123 2.12182617.07592773 1.89770508.30297852 1.89770508.30297852 4.89770508 2.30297852-1.875 4.75-1.875 4.75-3 7-1-1-1-1-1.0625-4.0625.020625-.969375.04125-1.93875.0625-2.9375-.99.01160156-1.98.02320313-3 .03515625-6.73800533.05456565-13.32999603.05382399-20-1.03515625 0-.99 0-1.98 0-3z" fill="#504f4f" transform="translate(101 365)"/><path d="m0 0c5.09974947 1.34993368 8.19497536 4.67197229 11 9v3c-3.66060821-.58536753-5.54535164-2.083239-8.25-4.5625-.70640625-.64066406-1.4128125-1.28132813-2.140625-1.94140625-.79664062-.74056641-.79664062-.74056641-1.609375-1.49609375z" fill="#333334" transform="translate(111 301)"/><path d="m0 0c-10.06852662 6.71235108-28.24242298 5.18762091-40 5 0-.33 0-.66 0-1 4.40999263-.57614914 8.82079074-1.14555277 13.23242188-1.70898438 1.497629-.19220217 2.99503151-.38617853 4.4921875-.58203124 2.16412741-.28277932 4.32901554-.55896071 6.49414062-.83398438 1.9480957-.25136719 1.9480957-.25136719 3.93554688-.5078125 3.9959573-.38153376 7.8356264-.42960115 11.84570312-.3671875z" fill="#7d7e7f" transform="translate(221 416)"/><path d="m0 0 2.9375.0625v1c-1.65 0-3.3 0-5 0 .495.78375.99 1.5675 1.5 2.375 1.5 2.625 1.5 2.625 1.5 4.625h2v2c-.99 0-1.98 0-3 0 1.20381448 2.49361571 2.45428722 4.68143083 4 7-3.68069887-1.53643852-5.98775204-3.78150945-8.75-6.625-.79921875-.81726563-1.5984375-1.63453125-2.421875-2.4765625-.60328125-.62648438-1.2065625-1.25296875-1.828125-1.8984375l2-1 3 1c-.020625-.804375-.04125-1.60875-.0625-2.4375.09133162-3.74459638.32409852-3.54743058 4.125-3.625z" fill="#717271" transform="translate(122.0625 288.9375)"/><path d="m0 0c1.29744141.01353516 1.29744141.01353516 2.62109375.02734375.64066406.01160156 1.28132813.02320313 1.94140625.03515625-5.18649905 2.77848163-9.77697766 3.17739405-15.609375 3.31640625-.72680969.0207811-1.45361938.04156219-2.20245361.06297302-2.3126313.06517585-4.62537232.12423113-6.93817139.18312073-1.57162575.04321566-3.14324056.08683092-4.71484375.13085938-3.84494078.10684418-7.68999149.20820086-11.53515625.30664062 0-.33 0-.66 0-1 4.98601244-.95731439 9.87980411-1.27334807 14.9375-1.5 7.18928796-.32378778 14.32095602-1.66084307 21.5-1.5625z" fill="#939394" transform="translate(406.4375 183.9375)"/><path d="m0 0c-2.88220848 1.59657181-5.33258968 2.36483619-8.58984375 2.81640625-.86689453.12439453-1.73378906.24878906-2.62695313.37695313-1.34674804.1827246-1.34674804.1827246-2.72070312.36914062-1.78009395.25026555-3.56004681.50153712-5.33984375.75390625-.83104248.11625732-1.66208496.23251465-2.51831055.35229492-1.68618815.25342312-3.36280329.57131076-5.0324707.91723633-2.37613992.45300509-4.56819383.51262491-6.984375.4765625-.79019531-.00902344-1.58039063-.01804688-2.39453125-.02734375-.59167969-.01160156-1.18335938-.02320313-1.79296875-.03515625 0-.33 0-.66 0-1 12.73396477-2.91876591 24.87623187-5.09685438 38-5z" fill="#8c8c8b" transform="translate(462 193)"/><path d="m0 0c2.20029834 2.20029834 2.68582609 3.5781256 3.625 6.5.26039063.7940625.52078125 1.588125.7890625 2.40625.5859375 2.09375.5859375 2.09375.5859375 4.09375-2.25-.125-2.25-.125-5-1-2.375-2.875-2.375-2.875-4-6l1-3 3 3c0-1.98 0-3.96 0-6z" fill="#6a696a" transform="translate(295 291)"/><path d="m0 0h29c-.33.99-.66 1.98-1 3-3.3 0-6.6 0-10 0 0-.66 0-1.32 0-2-5.94 0-11.88 0-18 0 0-.33 0-.66 0-1z" fill="#2f2e2e" transform="translate(321 402)"/><path d="m0 0c.99.33 1.98.66 3 1-7.01842425 3.27323474-13.26529967 4.70590493-21 5 0-1.32 0-2.64 0-4 .96421875.02320313 1.9284375.04640625 2.921875.0703125 1.26328125.01804687 2.5265625.03609375 3.828125.0546875 1.87945312.03480469 1.87945312.03480469 3.796875.0703125 3.27856374-.18543913 4.66208275-.69921328 7.453125-2.1953125z" fill="#6d6e6e" transform="translate(416 311)"/><path d="m0 0 1 4c-1.94921875 2.61328125-1.94921875 2.61328125-4.6875 5.3125-1.33611328 1.35544922-1.33611328 1.35544922-2.69921875 2.73828125-.86238281.64324219-1.72476563 1.28648437-2.61328125 1.94921875-1.32-.33-2.64-.66-4-1z" fill="#565657" transform="translate(164 269)"/><path d="m0 0c4.21912747.4794463 6.79663178 1.16625119 10 4-.33 1.32-.66 2.64-1 4-6.81818182-1.96969697-6.81818182-1.96969697-9-5 0-.99 0-1.98 0-3z" fill="#434143" transform="translate(397 348)"/><path d="m0 0c2 0 2 0 4.125 2 .61875.66 1.2375 1.32 1.875 2 .66-1.32 1.32-2.64 2-4 1.32 1.98 2.64 3.96 4 6-.66 1.32-1.32 2.64-2 4-2.70017636-.37567671-3.80708505-.79469602-5.703125-2.8125-.51046875-.721875-1.0209375-1.44375-1.546875-2.1875-.52078125-.721875-1.0415625-1.44375-1.578125-2.1875-1.171875-1.8125-1.171875-1.8125-1.171875-2.8125z" fill="#494949" transform="translate(287 308)"/><path d="m0 0c2.4375.375 2.4375.375 5 1 .33.66.66 1.32 1 2l3-1c.33-.66.66-1.32 1-2 .12375.928125.12375.928125.25 1.875.56258459 2.30937567.56258459 2.30937567 2.8125 3.375l1.9375.75v2c-6.44489186-.26853716-10.26366354-2.66963524-15-7 0-.33 0-.66 0-1z" fill="#5a5a59" transform="translate(360 341)"/><path d="m0 0c5.852795.51482919 11.3297637 1.45357192 17 3v1c-2.54173977.02716824-5.08318415.04691969-7.625.0625-1.06927734.01256836-1.06927734.01256836-2.16015625.02539062-4.18828813.01921234-8.08768995-.26115792-12.21484375-1.08789062 0-.33 0-.66 0-1l5-1c0-.33 0-.66 0-1z" fill="#0f0e0e" transform="translate(279 371)"/><path d="m0 0c2.90802461 2.21928194 4.95312762 3.92969143 7 7v3c-5.03985731-.44469329-7.37634988-2.71343362-11-6l2-1c.99.33 1.98.66 3 1-.33-1.32-.66-2.64-1-4z" fill="#5f5f5f" transform="translate(347 349)"/><path d="m0 0c20.68584071-.87610619 20.68584071-.87610619 28 4-1.64574566.02688151-3.29161413.04634123-4.9375.0625-.91652344.01160156-1.83304688.02320313-2.77734375.03515625-2.28515625-.09765625-2.28515625-.09765625-3.28515625-1.09765625-3.55743849-.28659671-7.11499153-.4490807-10.6796875-.62109375-3.3203125-.37890625-3.3203125-.37890625-6.3203125-2.37890625z" fill="#787777" transform="translate(196 183)"/><path d="m0 0c1.77049689-.05410687 3.54146849-.09284119 5.3125-.125.98613281-.02320313 1.97226563-.04640625 2.98828125-.0703125 2.69921875.1953125 2.69921875.1953125 5.69921875 2.1953125-.33.66-.66 1.32-1 2-3.3 0-6.6 0-10 0 0-.66 0-1.32 0-2-.99-.33-1.98-.66-3-1 0-.33 0-.66 0-1z" fill="#1e1e1e" transform="translate(197 379)"/><path d="m0 0c5.60869565 2.43856333 5.60869565 2.43856333 7.4375 5.0625.5625 1.9375.5625 1.9375-.4375 3.9375-1.65-.33-3.3-.66-5-1 0-.66 0-1.32 0-2-.66 0-1.32 0-2 0-.38218767-1.65614657-.71395102-3.32457024-1-5z" fill="#6f6e6f" transform="translate(384 336)"/><path d="m0 0c4.51045941 2.46025059 8.18504423 5.60282037 12 9-.33.66-.66 1.32-1 2-4.31392226-.4793247-6.16569547-1.7457985-9-5h2c-.66-.61875-1.32-1.2375-2-1.875-2-2.125-2-2.125-2-4.125z" fill="#7e7f7e" transform="translate(520 305)"/><path d="m0 0c2 1.3125 2 1.3125 4 3v3l4 2v2c-5.03985731-.44469329-7.37634988-2.71343362-11-6l2-1 2 1c-.33-1.32-.66-2.64-1-4z" fill="#4e4e4e" transform="translate(516 301)"/><path d="m0 0h1c.18175781 1.21236328.18175781 1.21236328.3671875 2.44921875.16757812 1.06863281.33515625 2.13726562.5078125 3.23828125.16242188 1.05574219.32484375 2.11148438.4921875 3.19921875.59670102 2.93562166 1.323709 5.42234627 2.6328125 8.11328125l2 1c1.46410966 2.28401108 2.78696278 4.57392556 4 7-4.87137956-1.80421465-7.88256126-5.74216145-10.140625-10.3046875-1.00111801-3.13987012-1.05664472-5.71954015-.984375-9.0078125.01804687-1.06863281.03609375-2.13726562.0546875-3.23828125.02320313-.80824219.04640625-1.61648437.0703125-2.44921875z" fill="#a5a5a6" transform="translate(383 243)"/><path d="m0 0c8.94390988-.78150669 8.94390988-.78150669 13.125 2.3125 1.875 2.6875 1.875 2.6875 1.875 5.6875-.66-.598125-1.32-1.19625-2-1.8125-3.58183997-2.61175831-6.81377726-3.76844144-11-5.1875v3h2v2c-.99 0-1.98 0-3 0-.33-1.98-.66-3.96-1-6z" fill="#7a7a7a" transform="translate(272 252)"/><path d="m0 0 2.4375.9375v1c-1.04800781-.01160156-2.09601563-.02320313-3.17578125-.03515625-1.37890447-.0093803-2.75781086-.01848025-4.13671875-.02734375-.69029297-.00837891-1.38058594-.01675781-2.09179688-.02539062-3.14400562-.01518844-5.58990331.08595735-8.59570312 1.08789062.375-1.9375.375-1.9375 1-4 4.30813211-2.15406606 10.15621543-.25165505 14.5625 1.0625z" fill="#717374" transform="translate(67.5625 153.0625)"/><path d="m0 0c2.9375.375 2.9375.375 6 1 .33.66.66 1.32 1 2-.99 0-1.98 0-3 0 .95865509 2.33075929.95865509 2.33075929 4 4-5.41798672-.69165788-10.6822785-1.75799248-16-3 0-.33 0-.66 0-1l9-1c-.33-.66-.66-1.32-1-2z" fill="#747373" transform="translate(107 356)"/><path d="m0 0c3.17538332.34021964 4.02276865 1.02466604 6.25 3.4375 1.75 2.5625 1.75 2.5625 1.75 4.5625-3.67420866-.30618405-4.78135513-.75771784-7.3125-3.5625-.556875-.804375-1.11375-1.60875-1.6875-2.4375z" fill="#969796" transform="translate(367 324)"/><path d="m0 0c-3.62262966 2.11473305-7.28295669 2.81639264-11.375 3.625-1.92972656.39058594-1.92972656.39058594-3.8984375.7890625-3.32719709.5231442-6.36858732.70029579-9.7265625.5859375 7.70964299-4.21191897 16.33545974-5.43322701 25-5z" fill="#959592" transform="translate(488 188)"/><path d="m0 0v2c-3.44175522 2.14699969-5.7720292 2.09856795-9.75 1.625-.98484375-.11085938-1.9696875-.22171875-2.984375-.3359375-.74765625-.09539062-1.4953125-.19078125-2.265625-.2890625 0-.66 0-1.32 0-2 1.74978157-.16894443 3.49983612-.33506309 5.25-.5.97453125-.0928125 1.9490625-.185625 2.953125-.28125 2.25989653-.17675168 4.53007693-.21875 6.796875-.21875z" fill="#090908" transform="translate(211 369)"/><path d="m0 0h13c.33.66.66 1.32 1 2-.33.66-.66 1.32-1 2-4.62 0-9.24 0-14 0 0-.33 0-.66 0-1l9-1c-2.64-.33-5.28-.66-8-1 0-.33 0-.66 0-1z" fill="#818181" transform="translate(280 375)"/><path d="m0 0c6.625-.25 6.625-.25 10 2-2.64 0-5.28 0-8 0 3.17539556 3.42578949 3.17539556 3.42578949 7 6v2c-.99 0-1.98 0-3 0-.66-.99-1.32-1.98-2-3-.99-.33-1.98-.66-3-1-.33-1.98-.66-3.96-1-6z" fill="#656464" transform="translate(342 314)"/><path d="m0 0 2 1c-.33.66-.66 1.32-1 2-.66 0-1.32 0-2 0v2l2 1c-2.3125 2.5-2.3125 2.5-5 5-.99 0-1.98 0-3 0 1.4859916-4.59306496 3.85014682-7.43569245 7-11z" fill="#787777" transform="translate(237 265)"/><path d="m0 0v2c-2.41474617.53160457-4.83108107 1.05054766-7.25 1.5625-1.02287109.22719727-1.02287109.22719727-2.06640625.45898438-3.50128413.73085057-6.28657548 1.30055108-9.68359375-.02148438 2.94924939-1.62106548 5.63806994-2.48443268 8.9375-3.125 1.25103516-.25136719 1.25103516-.25136719 2.52734375-.5078125 2.54973644-.36929927 4.96274692-.43161278 7.53515625-.3671875z" fill="#828282" transform="translate(148 442)"/><path d="m0 0h11v2c-1.32.33-2.64.66-4 1l2 2c-3.73487777-.4979837-5.81237635-.87491756-9-3 0-.66 0-1.32 0-2z" fill="#6b6b6a" transform="translate(191 377)"/><path d="m0 0c1 2 1 2 .4375 5-1.4375 3-1.4375 3-4 4.4375-4.33116135.70873549-8.13320723.27031703-12.4375-.4375 0-.66 0-1.32 0-2 1.03125.185625 2.0625.37125 3.125.5625 3.63648442.41057082 6.32937009.215809 9.875-.5625.309375-.969375.61875-1.93875.9375-2.9375 1.0625-3.0625 1.0625-3.0625 2.0625-4.0625z" fill="#777" transform="translate(123 328)"/><path d="m0 0c4.1666604.47348414 6.92884715 1.04696841 10 4v2l1.75.375c2.27335767.63148824 4.1753529 1.51358191 6.25 2.625-.99.495-.99.495-2 1-2.6796875-1.07421875-2.6796875-1.07421875-5.875-2.6875-1.57394531-.77923828-1.57394531-.77923828-3.1796875-1.57421875-2.80734941-1.65685741-4.77282409-3.3296528-6.9453125-5.73828125z" fill="#787776" transform="translate(529 299)"/><path d="m0 0v2c-2.22638701.49960319-4.45324036.99488994-6.68359375 1.4765625-1.70357405.38495603-3.39145617.84106588-5.06640625 1.3359375-3.15537089.26294757-4.73463679-1.01581199-7.25-2.8125 2-1 2-1 5.375-.4375 4.89891387.59124823 8.49175477-1.79582933 13.625-1.5625z" fill="#858484" transform="translate(125 339)"/><path d="m0 0c2.3431213.25561323 4.67843403.59270772 7 1 .33.66.66 1.32 1 2-1.32 0-2.64 0-4 0 .99 1.65 1.98 3.3 3 5-2.95409701-1.37154504-5.44008376-2.98863724-8-5 .33-.99.66-1.98 1-3z" fill="#7a7979" transform="translate(255 294)"/><path d="m0 0c5.66129431 4.69766975 10.85228904 9.74723372 16 15-3 0-3 0-5.15625-1.93359375-1.16015625-1.23943359-1.16015625-1.23943359-2.34375-2.50390625-3.23958021-3.5573738-3.23958021-3.5573738-7.5-5.5625-.33-1.65-.66-3.3-1-5z" fill="#858683" transform="translate(510 271)"/><path d="m0 0c-3.37220401 2.248136-6.63804748 3.16868014-10.5 4.1875-1.01513672.28520508-1.01513672.28520508-2.05078125.57617188-3.34882756.89500223-5.0922028 1.35533344-8.44921875.23632812 2.18283925-.84770456 4.36996079-1.67807547 6.5625-2.5 1.21816406-.4640625 2.43632813-.928125 3.69140625-1.40625 3.78798565-1.10598121 6.82512608-1.29560162 10.74609375-1.09375z" fill="#909291" transform="translate(535 176)"/><path d="m0 0c.79664062.15339844 1.59328125.30679687 2.4140625.46484375 4.32041165.64476732 8.60131148.88558513 12.9609375 1.09765625 1.24716797.06477539 1.24716797.06477539 2.51953125.13085938 2.03500103.10525867 4.07021578.20637134 6.10546875.30664062v1c-7.92 0-15.84 0-24 0 0-.99 0-1.98 0-3z" fill="#7c7c7b" transform="translate(101 365)"/><path d="m0 0c7.35012956.57648075 14.01424576 2.71046164 21 5-7.04276845 2.26663812-14.61769268-.94759215-21-4 0-.33 0-.66 0-1z" fill="#908f90" transform="translate(522 438)"/><path d="m0 0 2 1c-.33.33-.66.66-1 1l2 2c-4.5 4-4.5 4-9 4 1.44253657-3.36591866 3.33264727-5.51047079 6-8z" fill="#707170" transform="translate(82 338)"/><path d="m0 0 2 3c-1.29299694 2.88437779-2.65941363 4.87219421-5 7-.99-.33-1.98-.66-3-1 1.98-2.97 3.96-5.94 6-9z" fill="#747474" transform="translate(228 308)"/><path d="m0 0 2 1c-3.58013816 4.88200658-6.17245063 7.19875747-12 9-2.21484375-.43359375-2.21484375-.43359375-4-1 1.19625-.556875 2.3925-1.11375 3.625-1.6875 3.9957175-1.98363911 7.06684676-4.33516208 10.375-7.3125z" fill="#6f7273" transform="translate(462 297)"/><path d="m0 0h10v3c-3.63 0-7.26 0-11 0 .33-.99.66-1.98 1-3z" fill="#464646" transform="translate(326 385)"/><path d="m0 0c2.475.495 2.475.495 5 1 .33.99.66 1.98 1 3-.99.495-.99.495-2 1-.72159424 1.64363134-1.39351421 3.31050386-2 5-.33 0-.66 0-1 0-.33-3.3-.66-6.6-1-10z" fill="#717172" transform="translate(214 353)"/><path d="m0 0c3.24299151 2.38957269 5.50902342 4.2047869 7 8-1.32.33-2.64.66-4 1-2.0625-2.8125-2.0625-2.8125-4-6 .33-.99.66-1.98 1-3z" fill="#676666" transform="translate(129 303)"/><path d="m0 0h13c-3.16240582 2.10827055-4.50657469 2.33817465-8.1875 2.625-1.35158203.11214844-1.35158203.11214844-2.73046875.2265625-1.03060547.07347656-1.03060547.07347656-2.08203125.1484375 0-.99 0-1.98 0-3z" fill="#0d0c0c" transform="translate(261 389)"/><path d="m0 0 2 1c-1.24520417 1.44165628-2.49637923 2.87815652-3.75 4.3125-.69609375.80050781-1.3921875 1.60101563-2.109375 2.42578125-1.93207835 2.04137476-3.84005626 3.66064726-6.140625 5.26171875-.66-.33-1.32-.66-2-1z" fill="#72726f" transform="translate(106 289)"/><path d="m0 0h2v2h2v2h2v6c-.99-.33-1.98-.66-3-1-.94921875-2.06640625-.94921875-2.06640625-1.6875-4.5625-.25136719-.82628906-.50273437-1.65257812-.76171875-2.50390625-.18175781-.63808594-.36351562-1.27617187-.55078125-1.93359375z" fill="#090909" transform="translate(289 287)"/><path d="m0 0c3.81684226 1.55500981 6.19195732 4.03595495 9 7-.804375-.33-1.60875-.66-2.4375-1-2.25931125-1.06059041-2.25931125-1.06059041-3.5625-1-.33.66-.66 1.32-1 2-1.5625-2.375-1.5625-2.375-3-5z" fill="#929292" transform="translate(178 358)"/><path d="m0 0v2c-2.88211302.96070434-4.69850044 1.10581883-7.6875 1.0625-1.21236328-.01353516-1.21236328-.01353516-2.44921875-.02734375-.92232422-.01740234-.92232422-.01740234-1.86328125-.03515625 3.51785988-3.51785988 7.19343658-3.10924008 12-3z" fill="#79797a" transform="translate(178 421)"/><path d="m0 0 1 3c-3.63 0-7.26 0-11 0 1-2 1-2 2.75-2.625 2.45450557-.40908426 4.7659411-.44400164 7.25-.375z" fill="#060405" transform="translate(247 359)"/><path d="m0 0 2 1c-2.31 2.64-4.62 5.28-7 8-.99-.33-1.98-.66-3-1z" fill="#5a5c5d" transform="translate(100 266)"/><path d="m0 0 6 3c.33-.66.66-1.32 1-2 3 3.75 3 3.75 3 6-4.38691545-.50618255-6.84391279-3.13082981-10-6 0-.33 0-.66 0-1z" fill="#7b7a79" transform="translate(274 262)"/><path d="m0 0c-.804375.3403125-.804375.3403125-1.625.6875-3.16000863 1.74632056-5.6426983 3.9527849-8.375 6.3125-.66-.33-1.32-.66-2-1l1-2h2c0-.66 0-1.32 0-2 3.4352048-2.29013653 4.985331-2.17842973 9-2z" fill="#696a6b" transform="translate(179 260)"/><path d="m0 0c2.50298434 2.93828597 3.46930939 5.17902761 4 9-.99-.33-1.98-.66-3-1 0-.66 0-1.32 0-2-.66 0-1.32 0-2 0-.33-.99-.66-1.98-1-3h2c0-.99 0-1.98 0-3z" fill="#848483" transform="translate(289 330)"/><path d="m0 0c2 0 2 0 4 1.9375.99 1.0209375.99 1.0209375 2 2.0625l2 1v5c-3.28788824-3.11016455-5.83735988-6.01618925-8-10z" fill="#656465" transform="translate(287 308)"/><path d="m0 0 1 2c-.33.66-.66 1.32-1 2l2 1c-1.28965176 1.37562854-2.62689293 2.70766393-4 4-.66 0-1.32 0-2 0 .53069061-3.82097239 1.49701566-6.06171403 4-9z" fill="#7a7a7a" transform="translate(214 304)"/><path d="m0 0c5.65394631-.34615998 9.03006806.56574762 14 3-2.98683937 1.49341969-4.95160978.40648676-8.125-.4375-1.09570312-.28746094-2.19140625-.57492188-3.3203125-.87109375-.84304687-.22816406-1.68609375-.45632812-2.5546875-.69140625 0-.33 0-.66 0-1z" fill="#6c6b6b" transform="translate(118 169)"/><path d="m0 0v2c-4.50353262 1.75747614-8.17639811 2.19294408-13 2 4.06337392-2.70891595 8.10048391-4 13-4z" fill="#7b7b7b" transform="translate(539 158)"/><path d="m0 0c1.8871875.0309375 1.8871875.0309375 3.8125.0625-4.51667907 3.01111938-7.6639991 3.10067926-13 3 2.88126412-2.88126412 5.28696866-3.12644314 9.1875-3.0625z" fill="#6f7070" transform="translate(133.1875 428.9375)"/><path d="m0 0c2.4375.6875 2.4375.6875 5 2 .8125 2.625.8125 2.625 1 5-1.32-.66-2.64-1.32-4-2 0-.66 0-1.32 0-2-.66 0-1.32 0-2 0 0-.99 0-1.98 0-3z" fill="#2e2e2e" transform="translate(305 328)"/><path d="m0 0c2 2 2 2 2.125 4.625-.04125.78375-.0825 1.5675-.125 2.375-.99 0-1.98 0-3 0-1.6875-2-1.6875-2-3-4 .33-.66.66-1.32 1-2 1.485.99 1.485.99 3 2 0-.99 0-1.98 0-3z" fill="#676767" transform="translate(287 326)"/><path d="m0 0 1 4c-.33-.66-.66-1.32-1-2-2.97.66-5.94 1.32-9 2 0-.99 0-1.98 0-3 3.07322544-.91058531 5.80097361-1.08886184 9-1z" fill="#807f7f" transform="translate(250 278)"/><path d="m0 0 2.3125.25c-1 3-1 3-2.875 4.25-2.125.75-2.125.75-5.125-.25 2.33846154-3.93846154 2.33846154-3.93846154 5.6875-4.25z" fill="#0c0c0b" transform="translate(246.6875 260.75)"/><path d="m0 0c1.41750563.11509661 2.83401169.24253658 4.25.375.78890625.06960937 1.5778125.13921875 2.390625.2109375 2.445252.42913363 4.20774403 1.20006888 6.359375 2.4140625v1c-4.92715996.46192125-8.50732625-1.1724717-13-3 0-.33 0-.66 0-1z" fill="#848381" transform="translate(89 161)"/><path d="m0 0 4 1c-.33 1.32-.66 2.64-1 4-1.32.33-2.64.66-4 1 .33-1.98.66-3.96 1-6z" fill="#4b4a4b" transform="translate(215 302)"/><path d="m0 0c1 2 1 2 .4375 4.4375-1.87848755 3.34860824-3.95371754 4.12354638-7.4375 5.5625 1.66751148-3.94139078 4.22710649-6.7892812 7-10z" fill="#6d6f6e" transform="translate(484 274)"/><path d="m0 0h6c-1.09818901 3.29456702-1.91003854 4.45501927-5 6-.33-1.98-.66-3.96-1-6z" fill="#4e4d4e" transform="translate(156 371)"/><path d="m0 0c4.875 1.75 4.875 1.75 6 4-.99 0-1.98 0-3 0-.33.66-.66 1.32-1 2-.99-.99-1.98-1.98-3-3 .33-.99.66-1.98 1-3z" fill="#8b8c8b" transform="translate(259 312)"/><path d="m0 0c1.75 1.3125 1.75 1.3125 3 3v2c-2.375-.3125-2.375-.3125-5-1-.66-.99-1.32-1.98-2-3 1.8125-.6875 1.8125-.6875 4-1z" fill="#7e7e7d" transform="translate(501 303)"/><path d="m0 0c2.00720923.28674418 4.0085944.61866701 6 1-1.32 1.32-2.64 2.64-4 4-.66-.66-1.32-1.32-2-2-.99.66-1.98 1.32-3 2 1.875-3.875 1.875-3.875 3-5z" fill="#6e6e6e" transform="translate(234 301)"/><path d="m0 0c4.875 1.75 4.875 1.75 6 4-1.32 0-2.64 0-4 0-.33.66-.66 1.32-1 2-.66-.66-1.32-1.32-2-2 .375-2.125.375-2.125 1-4z" fill="#898a88" transform="translate(111 301)"/><path d="m0 0c.99.66 1.98 1.32 3 2-.33 1.32-.66 2.64-1 4-2.02045442-.60183749-4.02111039-1.27306096-6-2-.33-.66-.66-1.32-1-2l6 2c-.33-1.32-.66-2.64-1-4z" fill="#8b8a89" transform="translate(404 350)"/><path d="m0 0c2 1.8125 2 1.8125 4 4v3c-2.86724686-.57344937-3.8614515-.8614515-6-3 .99-.33 1.98-.66 3-1-.33-.99-.66-1.98-1-3z" fill="#797978" transform="translate(358 314)"/><path d="m0 0c2.375.3125 2.375.3125 5 1 .66.99 1.32 1.98 2 3-1.32.33-2.64.66-4 1-.99-1.65-1.98-3.3-3-5z" fill="#767676" transform="translate(525 311)"/><path d="m0 0c1.5 1.3125 1.5 1.3125 3 3v3c-3.26954202-.56371414-4.82575883-1.49962266-7-4l4 1c0-.99 0-1.98 0-3z" fill="#828282" transform="translate(119 307)"/><path d="m0 0c0 3.99904969-1.72586967 5.80200422-4 9-.99-.33-1.98-.66-3-1 2.31-2.64 4.62-5.28 7-8z" fill="#626262" transform="translate(230 285)"/><path d="m0 0h4c-.33.99-.66 1.98-1 3-3.3 0-6.6 0-10 0 0-.33 0-.66 0-1l7-1c0-.33 0-.66 0-1z" fill="#969797" transform="translate(346 402)"/><path d="m0 0h5c.33.66.66 1.32 1 2-2.31.33-4.62.66-7 1 .33-.99.66-1.98 1-3z" fill="#0a090a" transform="translate(199 402)"/><path d="m0 0 1 2c-.33.66-.66 1.32-1 2l6-1c-2.61941217 1.74627478-4.03824877 2.38722388-7 3-.33-.99-.66-1.98-1-3 .66-.99 1.32-1.98 2-3z" fill="#8c8c8c" transform="translate(229 362)"/><path d="m0 0c2.475.495 2.475.495 5 1 .33.99.66 1.98 1 3-1.65-.33-3.3-.66-5-1-.33-.99-.66-1.98-1-3z" fill="#0d0c0c" transform="translate(369 345)"/><path d="m0 0c1.5 1.3125 1.5 1.3125 3 3v3c-1.32-.66-2.64-1.32-4-2 0-3 0-3 1-4z" fill="#919090" transform="translate(315 340)"/><path d="m0 0c2.475.495 2.475.495 5 1 .33 1.32.66 2.64 1 4-3.16115776-1.36983503-3.9927092-1.9890638-6-5z" fill="#3d3d3c" transform="translate(368 326)"/><path d="m0 0 7 6c-.99.33-1.98.66-3 1-2-1-2-1-3.125-4.0625-.28875-.969375-.5775-1.93875-.875-2.9375z" fill="#646465" transform="translate(183 265)"/><path d="m0 0c4.2295083 1.4098361 5.08210924 4.16421847 7 8-2.86207152-1.28299758-5.0245088-2.530636-7-5 0-.99 0-1.98 0-3z" fill="#79797b" transform="translate(387 260)"/></svg>